<svg width="22" height="27" viewBox="0 0 22 27" fill="none" xmlns="http://www.w3.org/2000/svg">
<path d="M18.1158 14.3597C18.1524 18.2535 21.5772 19.5493 21.6151 19.5658C21.5862 19.6572 21.0679 21.4124 19.8108 23.2254C18.7241 24.7928 17.5962 26.3545 15.8195 26.3869C14.0736 26.4186 13.5123 25.3652 11.5163 25.3652C9.52093 25.3652 8.89721 26.3545 7.24459 26.4186C5.52959 26.4827 4.22363 24.7236 3.12788 23.1619C0.888835 19.9674 -0.822257 14.1351 1.47531 10.1981C2.61669 8.24299 4.65642 7.00493 6.87037 6.97318C8.55446 6.94148 10.144 8.09128 11.1735 8.09128C12.2024 8.09128 14.1341 6.70854 16.1648 6.91162C17.0149 6.94653 19.4012 7.2505 20.9335 9.46391C20.81 9.53944 18.0862 11.1043 18.1158 14.3597V14.3597ZM14.8347 4.79818C15.7452 3.71054 16.358 2.19645 16.1908 0.689941C14.8784 0.741995 13.2914 1.553 12.35 2.64004C11.5064 3.60267 10.7675 5.1434 10.9669 6.6201C12.4297 6.73179 13.9241 5.88651 14.8347 4.79818" fill="#14141D"/>
</svg>
