<svg width="21" height="22" viewBox="0 0 21 22" fill="none" xmlns="http://www.w3.org/2000/svg">
<path fill-rule="evenodd" clip-rule="evenodd" d="M13.769 5.44259L17.1382 2.68431C15.337 1.18891 13.0233 0.290039 10.4999 0.290039C6.48047 0.290039 2.99364 2.57 1.26276 5.9071H1.2627C0.519266 7.3391 0.0998535 8.96539 0.0998535 10.69C0.0998535 12.4734 0.548435 14.1517 1.33928 15.6185L1.33914 15.6187C3.09573 18.8764 6.53914 21.0901 10.4997 21.0901C12.9643 21.0901 15.2283 20.233 17.0106 18.8004L17.01 18.7998L17.0099 18.7997L17.0103 18.7998L17.0109 18.8003C18.8434 17.3272 20.1663 15.2455 20.6725 12.8615C20.8217 12.1609 20.9 11.4346 20.9 10.69C20.9 10.026 20.8377 9.37631 20.7183 8.74719H16.3709H10.7286V12.8615H16.2898C15.7892 14.1975 14.8389 15.3135 13.6229 16.0266L13.623 16.027L13.6226 16.0267C12.7066 16.5644 11.6391 16.8724 10.4997 16.8724C7.8489 16.8724 5.58779 15.2039 4.70948 12.86L4.70957 12.8597C4.45587 12.1848 4.31758 11.4534 4.3175 10.69C4.3175 9.98655 4.43523 9.31056 4.65123 8.68083L4.6513 8.68089C5.48557 6.25286 7.78901 4.50773 10.4999 4.50773C11.7004 4.50773 12.821 4.85003 13.769 5.44259Z" fill="#FDFDFD"/>
</svg>
