<svg width="22" height="23" viewBox="0 0 22 23" fill="none" xmlns="http://www.w3.org/2000/svg">
<path fill-rule="evenodd" clip-rule="evenodd" d="M19.1821 11.757C19.1821 16.2758 15.5189 19.939 11.0001 19.939C6.48125 19.939 2.81803 16.2758 2.81803 11.757C2.81803 7.23815 6.48125 3.57492 11.0001 3.57492C15.5189 3.57492 19.1821 7.23815 19.1821 11.757ZM21.0221 11.757C21.0221 17.292 16.5351 21.779 11.0001 21.779C5.46504 21.779 0.978027 17.292 0.978027 11.757C0.978027 6.22194 5.46504 1.73492 11.0001 1.73492C16.5351 1.73492 21.0221 6.22194 21.0221 11.757ZM15.9723 8.47739C16.2172 8.10968 16.1177 7.61302 15.75 7.36807C15.3823 7.12313 14.8856 7.22265 14.6407 7.59036L10.2219 14.2239L6.89186 10.8924C6.57951 10.5799 6.07297 10.5798 5.76049 10.8922C5.448 11.2045 5.44789 11.7111 5.76024 12.0236L9.78055 16.0456L10.4708 16.7362L11.0122 15.9235L15.9723 8.47739Z" fill="currentColor"/>
</svg>
