<svg width="19" height="22" viewBox="0 0 19 22" fill="none" xmlns="http://www.w3.org/2000/svg">
<mask id="path-1-inside-1" fill="white">
<path fill-rule="evenodd" clip-rule="evenodd" d="M4.45997 3.2635C4.87379 1.54226 6.42327 0.263184 8.27148 0.263184H10.207C12.0553 0.263184 13.6047 1.54226 14.0186 3.2635H16.2897C17.607 3.2635 18.6749 4.3314 18.6749 5.64873C18.6749 6.80529 17.8518 7.76959 16.7594 7.98774V17.0895C16.7594 19.2545 15.0043 21.0095 12.8394 21.0095H5.63881C3.47385 21.0095 1.71881 19.2545 1.71881 17.0895V7.9196C0.759515 7.61067 0.0654297 6.71076 0.0654297 5.64873C0.0654297 4.3314 1.13334 3.2635 2.45067 3.2635H4.45997ZM8.27148 2.10318C7.45041 2.10318 6.74045 2.57893 6.40223 3.26981L12.0763 3.26981C11.7381 2.57893 11.0281 2.10318 10.207 2.10318H8.27148ZM2.45067 5.1035H2.72057C2.7561 5.10766 2.79226 5.10981 2.82891 5.10981L15.6496 5.10981C15.6862 5.10981 15.7224 5.10767 15.7579 5.1035H16.2897C16.5908 5.1035 16.8349 5.34761 16.8349 5.64873C16.8349 5.94986 16.5908 6.19397 16.2897 6.19397H15.8394H15.6151C15.5803 6.18999 15.545 6.18795 15.5092 6.18795H14.2088C13.7007 6.18795 13.2888 6.59984 13.2888 7.10795C13.2888 7.61605 13.7007 8.02795 14.2088 8.02795H14.9194V17.0895C14.9194 18.2383 13.9881 19.1695 12.8394 19.1695H5.63881C4.49006 19.1695 3.55881 18.2383 3.55881 17.0895V8.02795L11.0756 8.02795C11.5837 8.02795 11.9956 7.61605 11.9956 7.10795C11.9956 6.59984 11.5837 6.18795 11.0756 6.18795L2.75499 6.18795C2.71919 6.18795 2.68386 6.18999 2.64912 6.19397H2.63881H2.45067C2.14954 6.19397 1.90543 5.94986 1.90543 5.64873C1.90543 5.34761 2.14954 5.1035 2.45067 5.1035ZM7.34835 10.958C7.34835 10.4499 6.93645 10.038 6.42835 10.038C5.92025 10.038 5.50835 10.4499 5.50835 10.958V15.962C5.50835 16.4701 5.92025 16.882 6.42835 16.882C6.93645 16.882 7.34835 16.4701 7.34835 15.962V10.958ZM10.1587 10.958C10.1587 10.4499 9.74684 10.038 9.23874 10.038C8.73064 10.038 8.31874 10.4499 8.31874 10.958V15.962C8.31874 16.4701 8.73064 16.882 9.23874 16.882C9.74684 16.882 10.1587 16.4701 10.1587 15.962V10.958ZM12.0493 10.038C12.5574 10.038 12.9693 10.4499 12.9693 10.958V15.962C12.9693 16.4701 12.5574 16.882 12.0493 16.882C11.5412 16.882 11.1293 16.4701 11.1293 15.962V10.958C11.1293 10.4499 11.5412 10.038 12.0493 10.038Z"/>
</mask>
<path fill-rule="evenodd" clip-rule="evenodd" d="M4.45997 3.2635C4.87379 1.54226 6.42327 0.263184 8.27148 0.263184H10.207C12.0553 0.263184 13.6047 1.54226 14.0186 3.2635H16.2897C17.607 3.2635 18.6749 4.3314 18.6749 5.64873C18.6749 6.80529 17.8518 7.76959 16.7594 7.98774V17.0895C16.7594 19.2545 15.0043 21.0095 12.8394 21.0095H5.63881C3.47385 21.0095 1.71881 19.2545 1.71881 17.0895V7.9196C0.759515 7.61067 0.0654297 6.71076 0.0654297 5.64873C0.0654297 4.3314 1.13334 3.2635 2.45067 3.2635H4.45997ZM8.27148 2.10318C7.45041 2.10318 6.74045 2.57893 6.40223 3.26981L12.0763 3.26981C11.7381 2.57893 11.0281 2.10318 10.207 2.10318H8.27148ZM2.45067 5.1035H2.72057C2.7561 5.10766 2.79226 5.10981 2.82891 5.10981L15.6496 5.10981C15.6862 5.10981 15.7224 5.10767 15.7579 5.1035H16.2897C16.5908 5.1035 16.8349 5.34761 16.8349 5.64873C16.8349 5.94986 16.5908 6.19397 16.2897 6.19397H15.8394H15.6151C15.5803 6.18999 15.545 6.18795 15.5092 6.18795H14.2088C13.7007 6.18795 13.2888 6.59984 13.2888 7.10795C13.2888 7.61605 13.7007 8.02795 14.2088 8.02795H14.9194V17.0895C14.9194 18.2383 13.9881 19.1695 12.8394 19.1695H5.63881C4.49006 19.1695 3.55881 18.2383 3.55881 17.0895V8.02795L11.0756 8.02795C11.5837 8.02795 11.9956 7.61605 11.9956 7.10795C11.9956 6.59984 11.5837 6.18795 11.0756 6.18795L2.75499 6.18795C2.71919 6.18795 2.68386 6.18999 2.64912 6.19397H2.63881H2.45067C2.14954 6.19397 1.90543 5.94986 1.90543 5.64873C1.90543 5.34761 2.14954 5.1035 2.45067 5.1035ZM7.34835 10.958C7.34835 10.4499 6.93645 10.038 6.42835 10.038C5.92025 10.038 5.50835 10.4499 5.50835 10.958V15.962C5.50835 16.4701 5.92025 16.882 6.42835 16.882C6.93645 16.882 7.34835 16.4701 7.34835 15.962V10.958ZM10.1587 10.958C10.1587 10.4499 9.74684 10.038 9.23874 10.038C8.73064 10.038 8.31874 10.4499 8.31874 10.958V15.962C8.31874 16.4701 8.73064 16.882 9.23874 16.882C9.74684 16.882 10.1587 16.4701 10.1587 15.962V10.958ZM12.0493 10.038C12.5574 10.038 12.9693 10.4499 12.9693 10.958V15.962C12.9693 16.4701 12.5574 16.882 12.0493 16.882C11.5412 16.882 11.1293 16.4701 11.1293 15.962V10.958C11.1293 10.4499 11.5412 10.038 12.0493 10.038Z" fill="#EB5757"/>
<path d="M4.45997 3.2635V4.2635H5.24804L5.43226 3.49726L4.45997 3.2635ZM14.0186 3.2635L13.0463 3.49726L13.2305 4.2635H14.0186V3.2635ZM16.7594 7.98774L16.5635 7.0071L15.7594 7.16769V7.98774H16.7594ZM1.71881 7.9196H2.71881V7.19106L2.02534 6.96774L1.71881 7.9196ZM6.40223 3.26981L5.50408 2.83012L4.79928 4.26981H6.40223V3.26981ZM12.0763 3.26981V4.26981L13.6792 4.26981L12.9744 2.83012L12.0763 3.26981ZM2.72057 5.1035L2.83708 4.11031L2.77902 4.1035H2.72057V5.1035ZM2.82891 5.10981V4.10981V5.10981ZM15.6496 5.10981V6.10981V5.10981ZM15.7579 5.1035V4.1035H15.6995L15.6414 4.11031L15.7579 5.1035ZM15.6151 6.19397L15.5012 7.18747L15.558 7.19397H15.6151V6.19397ZM14.2088 8.02795L14.2088 9.02795H14.2088V8.02795ZM14.9194 8.02795H15.9194V7.02795H14.9194V8.02795ZM3.55881 8.02795L3.55881 7.02795H2.55881V8.02795H3.55881ZM11.0756 8.02795V9.02795V8.02795ZM11.0756 6.18795V7.18795V6.18795ZM2.75499 6.18795V5.18795V6.18795ZM2.64912 6.19397V7.19397H2.70623L2.76296 7.18747L2.64912 6.19397ZM8.27148 -0.736816C5.95047 -0.736816 4.00707 0.86941 3.48767 3.02973L5.43226 3.49726C5.74052 2.2151 6.89606 1.26318 8.27148 1.26318V-0.736816ZM10.207 -0.736816H8.27148V1.26318H10.207V-0.736816ZM14.9909 3.02973C14.4715 0.869412 12.5281 -0.736816 10.207 -0.736816V1.26318C11.5825 1.26318 12.738 2.2151 13.0463 3.49726L14.9909 3.02973ZM16.2897 2.2635H14.0186V4.2635H16.2897V2.2635ZM19.6749 5.64873C19.6749 3.77912 18.1593 2.2635 16.2897 2.2635V4.2635C17.0547 4.2635 17.6749 4.88369 17.6749 5.64873H19.6749ZM16.9552 8.96838C18.506 8.65868 19.6749 7.29132 19.6749 5.64873H17.6749C17.6749 6.31926 17.1975 6.8805 16.5635 7.0071L16.9552 8.96838ZM17.7594 17.0895V7.98774H15.7594V17.0895H17.7594ZM12.8394 22.0095C15.5566 22.0095 17.7594 19.8067 17.7594 17.0895H15.7594C15.7594 18.7022 14.452 20.0095 12.8394 20.0095V22.0095ZM5.63881 22.0095H12.8394V20.0095H5.63881V22.0095ZM0.718812 17.0895C0.718812 19.8067 2.92156 22.0095 5.63881 22.0095V20.0095C4.02614 20.0095 2.71881 18.7022 2.71881 17.0895H0.718812ZM0.718812 7.9196V17.0895H2.71881V7.9196H0.718812ZM-0.93457 5.64873C-0.93457 7.15753 0.0518014 8.43334 1.41228 8.87146L2.02534 6.96774C1.46723 6.788 1.06543 6.26398 1.06543 5.64873H-0.93457ZM2.45067 2.2635C0.581052 2.2635 -0.93457 3.77912 -0.93457 5.64873H1.06543C1.06543 4.88369 1.68562 4.2635 2.45067 4.2635V2.2635ZM4.45997 2.2635H2.45067V4.2635H4.45997V2.2635ZM7.30038 3.7095C7.47717 3.34838 7.84663 3.10318 8.27148 3.10318V1.10318C7.05418 1.10318 6.00373 1.80948 5.50408 2.83012L7.30038 3.7095ZM12.0763 2.26981L6.40223 2.26981V4.26981L12.0763 4.26981V2.26981ZM10.207 3.10318C10.6319 3.10318 11.0014 3.34838 11.1781 3.7095L12.9744 2.83012C12.4748 1.80948 11.4243 1.10318 10.207 1.10318V3.10318ZM8.27148 3.10318H10.207V1.10318H8.27148V3.10318ZM2.72057 4.1035H2.45067V6.1035H2.72057V4.1035ZM2.82891 4.10981C2.83128 4.10981 2.83403 4.10995 2.83708 4.11031L2.60406 6.09669C2.67817 6.10538 2.75323 6.10981 2.82891 6.10981V4.10981ZM15.6496 4.10981L2.82891 4.10981V6.10981L15.6496 6.10981V4.10981ZM15.6414 4.11031C15.6445 4.10995 15.6472 4.10981 15.6496 4.10981V6.10981C15.7253 6.10981 15.8003 6.10538 15.8745 6.09668L15.6414 4.11031ZM16.2897 4.1035H15.7579V6.1035H16.2897V4.1035ZM17.8349 5.64873C17.8349 4.79532 17.1431 4.1035 16.2897 4.1035V6.1035C16.0385 6.1035 15.8349 5.89989 15.8349 5.64873H17.8349ZM16.2897 7.19397C17.1431 7.19397 17.8349 6.50215 17.8349 5.64873H15.8349C15.8349 5.39757 16.0385 5.19397 16.2897 5.19397V7.19397ZM15.8394 7.19397H16.2897V5.19397H15.8394V7.19397ZM15.6151 7.19397H15.8394V5.19397H15.6151V7.19397ZM15.5092 7.18795C15.5069 7.18795 15.5042 7.18781 15.5012 7.18747L15.7289 5.20047C15.6564 5.19217 15.5831 5.18795 15.5092 5.18795V7.18795ZM14.2088 7.18795H15.5092V5.18795H14.2088V7.18795ZM14.2888 7.10795C14.2888 7.15213 14.253 7.18795 14.2088 7.18795V5.18795C13.1484 5.18795 12.2888 6.04756 12.2888 7.10795H14.2888ZM14.2088 7.02795C14.253 7.02795 14.2888 7.06376 14.2888 7.10795H12.2888C12.2888 8.16833 13.1484 9.02795 14.2088 9.02795L14.2088 7.02795ZM14.9194 7.02795H14.2088V9.02795H14.9194V7.02795ZM15.9194 17.0895V8.02795H13.9194V17.0895H15.9194ZM12.8394 20.1695C14.5404 20.1695 15.9194 18.7905 15.9194 17.0895H13.9194C13.9194 17.686 13.4358 18.1695 12.8394 18.1695V20.1695ZM5.63881 20.1695H12.8394V18.1695H5.63881V20.1695ZM2.55881 17.0895C2.55881 18.7905 3.93777 20.1695 5.63881 20.1695V18.1695C5.04234 18.1695 4.55881 17.686 4.55881 17.0895H2.55881ZM2.55881 8.02795V17.0895H4.55881V8.02795H2.55881ZM11.0756 7.02795L3.55881 7.02795L3.55881 9.02795L11.0756 9.02795V7.02795ZM10.9956 7.10795C10.9956 7.06376 11.0314 7.02795 11.0756 7.02795V9.02795C12.136 9.02795 12.9956 8.16833 12.9956 7.10795H10.9956ZM11.0756 7.18795C11.0314 7.18795 10.9956 7.15213 10.9956 7.10795H12.9956C12.9956 6.04756 12.136 5.18795 11.0756 5.18795V7.18795ZM2.75499 7.18795L11.0756 7.18795V5.18795L2.75499 5.18795V7.18795ZM2.76296 7.18747C2.75998 7.18781 2.7573 7.18795 2.75499 7.18795V5.18795C2.68108 5.18795 2.60774 5.19217 2.53528 5.20047L2.76296 7.18747ZM2.63881 7.19397H2.64912V5.19397H2.63881V7.19397ZM2.45067 7.19397H2.63881V5.19397H2.45067V7.19397ZM0.90543 5.64873C0.90543 6.50215 1.59726 7.19397 2.45067 7.19397V5.19397C2.70183 5.19397 2.90543 5.39757 2.90543 5.64873H0.90543ZM2.45067 4.1035C1.59726 4.1035 0.90543 4.79532 0.90543 5.64873H2.90543C2.90543 5.89989 2.70183 6.1035 2.45067 6.1035V4.1035ZM6.42835 11.038C6.38417 11.038 6.34835 11.0022 6.34835 10.958H8.34835C8.34835 9.89763 7.48873 9.03802 6.42835 9.03802V11.038ZM6.50835 10.958C6.50835 11.0022 6.47253 11.038 6.42835 11.038V9.03802C5.36796 9.03802 4.50835 9.89763 4.50835 10.958H6.50835ZM6.50835 15.962V10.958H4.50835V15.962H6.50835ZM6.42835 15.882C6.47253 15.882 6.50835 15.9178 6.50835 15.962H4.50835C4.50835 17.0223 5.36796 17.882 6.42835 17.882V15.882ZM6.34835 15.962C6.34835 15.9178 6.38417 15.882 6.42835 15.882V17.882C7.48873 17.882 8.34835 17.0223 8.34835 15.962H6.34835ZM6.34835 10.958V15.962H8.34835V10.958H6.34835ZM9.23874 11.038C9.19456 11.038 9.15874 11.0022 9.15874 10.958H11.1587C11.1587 9.89763 10.2991 9.03802 9.23874 9.03802V11.038ZM9.31874 10.958C9.31874 11.0022 9.28292 11.038 9.23874 11.038V9.03802C8.17835 9.03802 7.31874 9.89763 7.31874 10.958H9.31874ZM9.31874 15.962V10.958H7.31874V15.962H9.31874ZM9.23874 15.882C9.28292 15.882 9.31874 15.9178 9.31874 15.962H7.31874C7.31874 17.0223 8.17835 17.882 9.23874 17.882V15.882ZM9.15874 15.962C9.15874 15.9178 9.19456 15.882 9.23874 15.882V17.882C10.2991 17.882 11.1587 17.0223 11.1587 15.962H9.15874ZM9.15874 10.958V15.962H11.1587V10.958H9.15874ZM13.9693 10.958C13.9693 9.89763 13.1097 9.03802 12.0493 9.03802V11.038C12.0051 11.038 11.9693 11.0022 11.9693 10.958H13.9693ZM13.9693 15.962V10.958H11.9693V15.962H13.9693ZM12.0493 17.882C13.1097 17.882 13.9693 17.0223 13.9693 15.962H11.9693C11.9693 15.9178 12.0051 15.882 12.0493 15.882V17.882ZM10.1293 15.962C10.1293 17.0223 10.9889 17.882 12.0493 17.882V15.882C12.0935 15.882 12.1293 15.9178 12.1293 15.962H10.1293ZM10.1293 10.958V15.962H12.1293V10.958H10.1293ZM12.0493 9.03802C10.9889 9.03802 10.1293 9.89763 10.1293 10.958H12.1293C12.1293 11.0022 12.0935 11.038 12.0493 11.038V9.03802Z" fill="currentColor" mask="url(#path-1-inside-1)"/>
</svg>
