<svg width="13" height="13" viewBox="0 0 13 13" fill="none" xmlns="http://www.w3.org/2000/svg">
<g clip-path="url(#clip0)">
<mask id="path-1-inside-1" fill="white">
<path fill-rule="evenodd" clip-rule="evenodd" d="M6.77507 1.30029C7.14389 1.30029 7.44287 1.59928 7.44287 1.96809V2.76093C8.45041 2.96908 9.3916 3.74527 9.3916 5.07472C9.3916 5.35086 9.16774 5.57472 8.8916 5.57472C8.61546 5.57472 8.3916 5.35086 8.3916 5.07472C8.3916 4.25463 7.76165 3.75486 7.00751 3.70752C6.93513 3.7344 6.85681 3.74909 6.77507 3.74909C6.71526 3.74909 6.65729 3.74122 6.60213 3.72648C5.90286 3.83783 5.32349 4.35112 5.32349 5.07472C5.32349 5.30084 5.36909 5.44933 5.42876 5.55557C5.48913 5.66305 5.5819 5.75924 5.72381 5.8535C5.96598 6.01435 6.26914 6.12512 6.66486 6.26972C6.78945 6.31525 6.92322 6.36413 7.06715 6.41898L7.08409 6.42543C7.60647 6.6245 8.17 6.83924 8.59525 7.15127C9.06004 7.49231 9.3916 7.97232 9.3916 8.66803C9.3916 9.7886 8.59668 10.7709 7.44287 11.0121V11.8108C7.44287 12.1796 7.14389 12.4786 6.77507 12.4786C6.40626 12.4786 6.10727 12.1796 6.10727 11.8108L6.10727 10.9569C5.71449 10.8417 5.36695 10.6447 5.08632 10.3993C4.63871 10.0081 4.32349 9.45707 4.32349 8.87587C4.32349 8.59973 4.54734 8.37587 4.82349 8.37587C5.09963 8.37587 5.32349 8.59973 5.32349 8.87587C5.32349 9.09648 5.45321 9.39185 5.74447 9.64646C5.97081 9.84431 6.27218 9.99541 6.61887 10.0482C6.66898 10.0362 6.72128 10.0298 6.77507 10.0298C6.8508 10.0298 6.92358 10.0424 6.99144 10.0657C7.8397 10.0171 8.3916 9.36751 8.3916 8.66803C8.3916 8.35404 8.26739 8.15102 8.00367 7.95751C7.70501 7.73837 7.2749 7.56831 6.71104 7.35342C6.61076 7.31521 6.50549 7.27698 6.39769 7.23784L6.39765 7.23782L6.39764 7.23782L6.39763 7.23782C5.97881 7.08574 5.52177 6.91978 5.17054 6.6865C4.93242 6.52834 4.71334 6.32385 4.55688 6.04528C4.39971 5.76547 4.32349 5.44253 4.32349 5.07472C4.32349 3.85909 5.17579 3.09516 6.10727 2.81961L6.10727 1.96809C6.10727 1.59928 6.40626 1.30029 6.77507 1.30029Z"/>
</mask>
<path fill-rule="evenodd" clip-rule="evenodd" d="M6.77507 1.30029C7.14389 1.30029 7.44287 1.59928 7.44287 1.96809V2.76093C8.45041 2.96908 9.3916 3.74527 9.3916 5.07472C9.3916 5.35086 9.16774 5.57472 8.8916 5.57472C8.61546 5.57472 8.3916 5.35086 8.3916 5.07472C8.3916 4.25463 7.76165 3.75486 7.00751 3.70752C6.93513 3.7344 6.85681 3.74909 6.77507 3.74909C6.71526 3.74909 6.65729 3.74122 6.60213 3.72648C5.90286 3.83783 5.32349 4.35112 5.32349 5.07472C5.32349 5.30084 5.36909 5.44933 5.42876 5.55557C5.48913 5.66305 5.5819 5.75924 5.72381 5.8535C5.96598 6.01435 6.26914 6.12512 6.66486 6.26972C6.78945 6.31525 6.92322 6.36413 7.06715 6.41898L7.08409 6.42543C7.60647 6.6245 8.17 6.83924 8.59525 7.15127C9.06004 7.49231 9.3916 7.97232 9.3916 8.66803C9.3916 9.7886 8.59668 10.7709 7.44287 11.0121V11.8108C7.44287 12.1796 7.14389 12.4786 6.77507 12.4786C6.40626 12.4786 6.10727 12.1796 6.10727 11.8108L6.10727 10.9569C5.71449 10.8417 5.36695 10.6447 5.08632 10.3993C4.63871 10.0081 4.32349 9.45707 4.32349 8.87587C4.32349 8.59973 4.54734 8.37587 4.82349 8.37587C5.09963 8.37587 5.32349 8.59973 5.32349 8.87587C5.32349 9.09648 5.45321 9.39185 5.74447 9.64646C5.97081 9.84431 6.27218 9.99541 6.61887 10.0482C6.66898 10.0362 6.72128 10.0298 6.77507 10.0298C6.8508 10.0298 6.92358 10.0424 6.99144 10.0657C7.8397 10.0171 8.3916 9.36751 8.3916 8.66803C8.3916 8.35404 8.26739 8.15102 8.00367 7.95751C7.70501 7.73837 7.2749 7.56831 6.71104 7.35342C6.61076 7.31521 6.50549 7.27698 6.39769 7.23784L6.39765 7.23782L6.39764 7.23782L6.39763 7.23782C5.97881 7.08574 5.52177 6.91978 5.17054 6.6865C4.93242 6.52834 4.71334 6.32385 4.55688 6.04528C4.39971 5.76547 4.32349 5.44253 4.32349 5.07472C4.32349 3.85909 5.17579 3.09516 6.10727 2.81961L6.10727 1.96809C6.10727 1.59928 6.40626 1.30029 6.77507 1.30029Z" fill="#A5A6F6"/>
<path d="M7.44287 2.76093H6.96622V3.14918L7.34644 3.22772L7.44287 2.76093ZM7.00751 3.70752L7.03738 3.23181L6.93642 3.22547L6.84159 3.26068L7.00751 3.70752ZM6.60213 3.72648L6.72525 3.266L6.6273 3.23982L6.52717 3.25576L6.60213 3.72648ZM5.42876 5.55557L5.84434 5.32215L5.84434 5.32214L5.42876 5.55557ZM5.72381 5.8535L5.98753 5.45645L5.72381 5.8535ZM6.66486 6.26972L6.50127 6.71742H6.50127L6.66486 6.26972ZM7.06715 6.41898L6.89741 6.86438L6.89742 6.86438L7.06715 6.41898ZM7.08409 6.42543L6.91436 6.87084L6.91436 6.87084L7.08409 6.42543ZM8.59525 7.15127L8.31328 7.53556L8.31328 7.53556L8.59525 7.15127ZM7.44287 11.0121L7.34535 10.5455L6.96622 10.6248V11.0121H7.44287ZM6.10727 11.8108H5.63062H6.10727ZM6.10727 10.9569H6.58392L6.58392 10.5999L6.24136 10.4995L6.10727 10.9569ZM5.08632 10.3993L5.40003 10.0405L5.40003 10.0405L5.08632 10.3993ZM5.74447 9.64646L5.43077 10.0053L5.43077 10.0053L5.74447 9.64646ZM6.61887 10.0482L6.5471 10.5194L6.63928 10.5335L6.72995 10.5117L6.61887 10.0482ZM6.99144 10.0657L6.83707 10.5166L6.92544 10.5469L7.01868 10.5415L6.99144 10.0657ZM8.00367 7.95751L8.28565 7.57322L8.28565 7.57322L8.00367 7.95751ZM6.71104 7.35342L6.5413 7.79882H6.5413L6.71104 7.35342ZM6.39769 7.23784L6.2336 7.68535L6.23501 7.68586L6.39769 7.23784ZM6.39765 7.23782L6.56174 6.79031L6.55154 6.78657L6.54118 6.7833L6.39765 7.23782ZM6.39764 7.23782L6.24689 7.69006L6.2541 7.69234L6.39764 7.23782ZM6.39763 7.23782L6.23489 7.686L6.2469 7.69L6.39763 7.23782ZM5.17054 6.6865L5.43426 6.28945H5.43425L5.17054 6.6865ZM4.55688 6.04528L4.1413 6.27871H4.1413L4.55688 6.04528ZM6.10727 2.81961L6.24248 3.27668L6.58392 3.17568V2.81961L6.10727 2.81961ZM6.10727 1.96809L6.58392 1.96809V1.96809H6.10727ZM7.91952 1.96809C7.91952 1.33603 7.40713 0.823646 6.77507 0.823646V1.77694C6.88064 1.77694 6.96622 1.86252 6.96622 1.96809H7.91952ZM7.91952 2.76093V1.96809H6.96622V2.76093H7.91952ZM9.86824 5.07472C9.86824 3.46551 8.71106 2.53621 7.5393 2.29414L7.34644 3.22772C8.18976 3.40194 8.91495 4.02502 8.91495 5.07472H9.86824ZM8.8916 6.05136C9.43098 6.05136 9.86824 5.61411 9.86824 5.07472H8.91495C8.91495 5.08762 8.9045 5.09807 8.8916 5.09807V6.05136ZM7.91495 5.07472C7.91495 5.61411 8.35221 6.05136 8.8916 6.05136V5.09807C8.8787 5.09807 8.86824 5.08762 8.86824 5.07472H7.91495ZM6.97765 4.18323C7.54304 4.21872 7.91495 4.56436 7.91495 5.07472H8.86824C8.86824 3.94489 7.98026 3.291 7.03738 3.23181L6.97765 4.18323ZM6.77507 4.22573C6.91429 4.22573 7.04874 4.20066 7.17343 4.15436L6.84159 3.26068C6.82151 3.26814 6.79933 3.27244 6.77507 3.27244V4.22573ZM6.47902 4.18695C6.57397 4.21234 6.67332 4.22573 6.77507 4.22573V3.27244C6.7572 3.27244 6.74061 3.27011 6.72525 3.266L6.47902 4.18695ZM5.80013 5.07472C5.80013 4.64757 6.14196 4.28241 6.67709 4.19719L6.52717 3.25576C5.66375 3.39326 4.84684 4.05468 4.84684 5.07472H5.80013ZM5.84434 5.32214C5.83107 5.29851 5.80013 5.23314 5.80013 5.07472H4.84684C4.84684 5.36854 4.90711 5.60014 5.01318 5.78899L5.84434 5.32214ZM5.98753 5.45645C5.8916 5.39274 5.85897 5.3482 5.84434 5.32215L5.01318 5.78899C5.11929 5.97791 5.27219 6.12574 5.4601 6.25054L5.98753 5.45645ZM6.82845 5.82203C6.41574 5.67122 6.17268 5.57943 5.98753 5.45645L5.4601 6.25054C5.75928 6.44926 6.12254 6.57902 6.50127 6.71742L6.82845 5.82203ZM7.23689 5.97358C7.08947 5.9174 6.95277 5.86745 6.82845 5.82203L6.50127 6.71742C6.62614 6.76304 6.75698 6.81086 6.89741 6.86438L7.23689 5.97358ZM7.25382 5.98003L7.23688 5.97358L6.89742 6.86438L6.91436 6.87084L7.25382 5.98003ZM8.87723 6.76697C8.38996 6.40944 7.76076 6.17321 7.25382 5.98003L6.91436 6.87084C7.45217 7.07578 7.95004 7.26903 8.31328 7.53556L8.87723 6.76697ZM9.86824 8.66803C9.86824 7.78971 9.43722 7.17787 8.87723 6.76697L8.31328 7.53556C8.68286 7.80674 8.91495 8.15492 8.91495 8.66803H9.86824ZM7.54039 11.4787C8.9092 11.1926 9.86824 10.0202 9.86824 8.66803H8.91495C8.91495 9.55699 8.28416 10.3493 7.34535 10.5455L7.54039 11.4787ZM6.96622 11.0121V11.8108H7.91952V11.0121H6.96622ZM6.96622 11.8108C6.96622 11.9164 6.88064 12.002 6.77507 12.002V12.9553C7.40713 12.9553 7.91952 12.4429 7.91952 11.8108H6.96622ZM6.77507 12.002C6.6695 12.002 6.58392 11.9164 6.58392 11.8108H5.63062C5.63062 12.4429 6.14301 12.9553 6.77507 12.9553V12.002ZM6.58392 11.8108V10.9569H5.63062L5.63062 11.8108H6.58392ZM4.77262 10.7582C5.10421 11.0481 5.51276 11.2793 5.97318 11.4143L6.24136 10.4995C5.91622 10.4041 5.62969 10.2412 5.40003 10.0405L4.77262 10.7582ZM3.84684 8.87587C3.84684 9.62944 4.25096 10.3022 4.77262 10.7582L5.40003 10.0405C5.02646 9.71393 4.80013 9.2847 4.80013 8.87587H3.84684ZM4.82349 7.89923C4.2841 7.89923 3.84684 8.33649 3.84684 8.87587H4.80013C4.80013 8.86297 4.81059 8.85252 4.82349 8.85252V7.89923ZM5.80013 8.87587C5.80013 8.33649 5.36287 7.89923 4.82349 7.89923V8.85252C4.83638 8.85252 4.84684 8.86297 4.84684 8.87587H5.80013ZM6.05818 9.2876C5.84237 9.09895 5.80013 8.92559 5.80013 8.87587H4.84684C4.84684 9.26738 5.06406 9.68475 5.43077 10.0053L6.05818 9.2876ZM6.69064 9.577C6.43674 9.53833 6.2186 9.42784 6.05818 9.2876L5.43077 10.0053C5.72301 10.2608 6.10761 10.4525 6.5471 10.5194L6.69064 9.577ZM6.72995 10.5117C6.74396 10.5084 6.75899 10.5065 6.77507 10.5065V9.55319C6.68357 9.55319 6.59399 9.56403 6.50779 9.58469L6.72995 10.5117ZM6.77507 10.5065C6.79758 10.5065 6.81824 10.5102 6.83707 10.5166L7.1458 9.61471C7.02892 9.57471 6.90402 9.55319 6.77507 9.55319V10.5065ZM7.91495 8.66803C7.91495 9.11066 7.5644 9.55545 6.9642 9.58981L7.01868 10.5415C8.115 10.4788 8.86824 9.62435 8.86824 8.66803H7.91495ZM7.72169 8.3418C7.8196 8.41364 7.86074 8.46496 7.88076 8.50067C7.89817 8.53173 7.91495 8.5778 7.91495 8.66803H8.86824C8.86824 8.44427 8.82292 8.23182 8.7123 8.0345C8.60429 7.84183 8.45146 7.69488 8.28565 7.57322L7.72169 8.3418ZM6.5413 7.79882C7.12368 8.02077 7.48581 8.16873 7.72169 8.3418L8.28565 7.57322C7.92421 7.30801 7.42612 7.11585 6.88078 6.90802L6.5413 7.79882ZM6.23501 7.68586C6.34353 7.72527 6.44517 7.76219 6.5413 7.79882L6.88078 6.90802C6.77635 6.86823 6.66745 6.8287 6.56038 6.78982L6.23501 7.68586ZM6.23356 7.68534L6.23361 7.68535L6.56178 6.79033L6.56174 6.79031L6.23356 7.68534ZM6.2541 7.69234L6.25412 7.69235L6.54118 6.7833L6.54117 6.7833L6.2541 7.69234ZM6.2469 7.69L6.24691 7.69001L6.54837 6.78563L6.54836 6.78563L6.2469 7.69ZM4.90682 7.08354C5.31472 7.35447 5.82994 7.53878 6.23495 7.68584L6.56031 6.78979C6.12768 6.6327 5.72882 6.4851 5.43426 6.28945L4.90682 7.08354ZM4.1413 6.27871C4.34359 6.63887 4.62292 6.89497 4.90682 7.08354L5.43425 6.28945C5.24193 6.16171 5.08309 6.00883 4.97246 5.81186L4.1413 6.27871ZM3.84684 5.07472C3.84684 5.50998 3.93763 5.9161 4.1413 6.27871L4.97246 5.81186C4.8618 5.61484 4.80013 5.37508 4.80013 5.07472H3.84684ZM5.97206 2.36254C4.89895 2.67999 3.84684 3.59061 3.84684 5.07472H4.80013C4.80013 4.12756 5.45264 3.51033 6.24248 3.27668L5.97206 2.36254ZM5.63062 1.96809L5.63062 2.81961L6.58392 2.81961V1.96809L5.63062 1.96809ZM6.77507 0.823646C6.14301 0.823646 5.63062 1.33603 5.63062 1.96809H6.58392C6.58392 1.86252 6.6695 1.77694 6.77507 1.77694V0.823646Z" fill="#A5A6F6" mask="url(#path-1-inside-1)"/>
</g>
<defs>
<clipPath id="clip0">
<rect width="12" height="12" fill="white" transform="translate(0.857666 0.889404)"/>
</clipPath>
</defs>
</svg>
