<svg width="22" height="22" viewBox="0 0 22 22" fill="none" xmlns="http://www.w3.org/2000/svg">
<mask id="path-1-inside-1" fill="white">
<path fill-rule="evenodd" clip-rule="evenodd" d="M14.0733 3.96842C14.5263 3.51541 15.2608 3.51541 15.7138 3.96842L17.6901 5.94471C18.1431 6.39772 18.1431 7.13219 17.6901 7.5852L16.3268 8.94851L16.1017 8.72341C15.7424 8.36413 15.1599 8.36413 14.8006 8.72341C14.4413 9.08269 14.4413 9.66521 14.8006 10.0245L15.0257 10.2496L11.8761 13.3992L10.5071 14.7682C10.2255 15.0498 9.87749 15.256 9.49522 15.3678L7.94537 15.8209L5.87039 13.746L6.3137 12.1413C6.41709 11.767 6.61576 11.426 6.89032 11.1514L8.25935 9.78238L11.409 6.63271L12.66 7.8837C13.0193 8.24298 13.6018 8.24298 13.9611 7.8837C14.3204 7.52442 14.3204 6.94191 13.9611 6.58263L12.7101 5.33163L14.0733 3.96842ZM5.30713 15.7849L5.06446 16.6633L5.93192 16.4096L5.30713 15.7849ZM10.0116 17.1338L4.13404 18.8524C3.38215 19.0722 2.68091 18.3813 2.88951 17.6263L4.54014 11.6513C4.72825 10.9704 5.08971 10.3499 5.58924 9.85034L6.95828 8.4813L12.7722 2.66734C13.9438 1.49577 15.8433 1.49577 17.0149 2.66734L18.9912 4.64363C20.1627 5.81521 20.1627 7.7147 18.9912 8.88627L13.1772 14.7002L11.8082 16.0693C11.3082 16.5693 10.6903 16.9354 10.0116 17.1338Z"/>
</mask>
<path fill-rule="evenodd" clip-rule="evenodd" d="M14.0733 3.96842C14.5263 3.51541 15.2608 3.51541 15.7138 3.96842L17.6901 5.94471C18.1431 6.39772 18.1431 7.13219 17.6901 7.5852L16.3268 8.94851L16.1017 8.72341C15.7424 8.36413 15.1599 8.36413 14.8006 8.72341C14.4413 9.08269 14.4413 9.66521 14.8006 10.0245L15.0257 10.2496L11.8761 13.3992L10.5071 14.7682C10.2255 15.0498 9.87749 15.256 9.49522 15.3678L7.94537 15.8209L5.87039 13.746L6.3137 12.1413C6.41709 11.767 6.61576 11.426 6.89032 11.1514L8.25935 9.78238L11.409 6.63271L12.66 7.8837C13.0193 8.24298 13.6018 8.24298 13.9611 7.8837C14.3204 7.52442 14.3204 6.94191 13.9611 6.58263L12.7101 5.33163L14.0733 3.96842ZM5.30713 15.7849L5.06446 16.6633L5.93192 16.4096L5.30713 15.7849ZM10.0116 17.1338L4.13404 18.8524C3.38215 19.0722 2.68091 18.3813 2.88951 17.6263L4.54014 11.6513C4.72825 10.9704 5.08971 10.3499 5.58924 9.85034L6.95828 8.4813L12.7722 2.66734C13.9438 1.49577 15.8433 1.49577 17.0149 2.66734L18.9912 4.64363C20.1627 5.81521 20.1627 7.7147 18.9912 8.88627L13.1772 14.7002L11.8082 16.0693C11.3082 16.5693 10.6903 16.9354 10.0116 17.1338Z" fill="#2B2E43"/>
<path d="M15.7138 3.96842L16.4209 3.26131L15.7138 3.96842ZM14.0733 3.96842L14.7804 4.67552L14.0733 3.96842ZM17.6901 5.94471L16.983 6.65182L17.6901 5.94471ZM17.6901 7.5852L18.3972 8.2923L17.6901 7.5852ZM16.3268 8.94851L15.6197 9.65561L16.3268 10.3627L17.0339 9.65561L16.3268 8.94851ZM16.1017 8.72341L16.8088 8.01631L16.1017 8.72341ZM15.0257 10.2496L15.7328 10.9567L16.4399 10.2496L15.7328 9.54248L15.0257 10.2496ZM9.49522 15.3678L9.77586 16.3276L9.77586 16.3276L9.49522 15.3678ZM7.94537 15.8209L7.23826 16.528L7.65726 16.947L8.226 16.7808L7.94537 15.8209ZM5.87039 13.746L4.9065 13.4797L4.75138 14.0412L5.16329 14.4531L5.87039 13.746ZM6.3137 12.1413L7.2776 12.4076L7.2776 12.4076L6.3137 12.1413ZM11.409 6.63271L12.1161 5.9256L11.409 5.2185L10.7019 5.9256L11.409 6.63271ZM12.66 7.8837L11.9529 8.59081L11.9529 8.59081L12.66 7.8837ZM13.9611 6.58263L14.6682 5.87552L13.9611 6.58263ZM12.7101 5.33163L12.003 4.62453L11.2959 5.33163L12.003 6.03874L12.7101 5.33163ZM5.30713 15.7849L6.01424 15.0777L4.80036 13.8639L4.34324 15.5186L5.30713 15.7849ZM5.06446 16.6633L4.10057 16.397L3.62272 18.1267L5.3451 17.6231L5.06446 16.6633ZM5.93192 16.4096L6.21256 17.3695L7.83234 16.8959L6.63903 15.7025L5.93192 16.4096ZM4.13404 18.8524L4.41467 19.8122L4.41467 19.8122L4.13404 18.8524ZM10.0116 17.1338L9.73096 16.174L9.73096 16.174L10.0116 17.1338ZM2.88951 17.6263L1.92561 17.36L1.92561 17.36L2.88951 17.6263ZM4.54014 11.6513L3.57624 11.385L3.57624 11.385L4.54014 11.6513ZM17.0149 2.66734L17.722 1.96023L17.0149 2.66734ZM18.9912 4.64363L18.2841 5.35074L18.9912 4.64363ZM16.4209 3.26131C15.5774 2.41778 14.2097 2.41778 13.3662 3.26131L14.7804 4.67552C14.8429 4.61304 14.9442 4.61304 15.0067 4.67552L16.4209 3.26131ZM18.3972 5.2376L16.4209 3.26131L15.0067 4.67552L16.983 6.65182L18.3972 5.2376ZM18.3972 8.2923C19.2407 7.44877 19.2407 6.08114 18.3972 5.2376L16.983 6.65182C17.0455 6.7143 17.0455 6.81561 16.983 6.87809L18.3972 8.2923ZM17.0339 9.65561L18.3972 8.2923L16.983 6.87809L15.6197 8.2414L17.0339 9.65561ZM15.3946 9.43052L15.6197 9.65561L17.0339 8.2414L16.8088 8.01631L15.3946 9.43052ZM15.5077 9.43052C15.4765 9.46176 15.4258 9.46176 15.3946 9.43052L16.8088 8.01631C16.059 7.2665 14.8433 7.2665 14.0935 8.01631L15.5077 9.43052ZM15.5077 9.31738C15.539 9.34862 15.539 9.39928 15.5077 9.43052L14.0935 8.01631C13.3437 8.76611 13.3437 9.98179 14.0935 10.7316L15.5077 9.31738ZM15.7328 9.54248L15.5077 9.31738L14.0935 10.7316L14.3186 10.9567L15.7328 9.54248ZM12.5832 14.1063L15.7328 10.9567L14.3186 9.54248L11.169 12.692L12.5832 14.1063ZM11.2142 15.4753L12.5832 14.1063L11.169 12.692L9.79999 14.0611L11.2142 15.4753ZM9.77586 16.3276C10.3192 16.1687 10.8139 15.8756 11.2142 15.4753L9.79999 14.0611C9.63706 14.224 9.43574 14.3433 9.21459 14.408L9.77586 16.3276ZM8.226 16.7808L9.77586 16.3276L9.21459 14.408L7.66473 14.8611L8.226 16.7808ZM5.16329 14.4531L7.23826 16.528L8.65248 15.1138L6.5775 13.0389L5.16329 14.4531ZM5.34981 11.875L4.9065 13.4797L6.83429 14.0122L7.2776 12.4076L5.34981 11.875ZM6.18321 10.4443C5.78639 10.8411 5.49924 11.3341 5.34981 11.875L7.2776 12.4076C7.33494 12.2 7.44514 12.0108 7.59742 11.8585L6.18321 10.4443ZM7.55225 9.07527L6.18321 10.4443L7.59742 11.8585L8.96646 10.4895L7.55225 9.07527ZM10.7019 5.9256L7.55225 9.07527L8.96646 10.4895L12.1161 7.33982L10.7019 5.9256ZM13.3671 7.1766L12.1161 5.9256L10.7019 7.33982L11.9529 8.59081L13.3671 7.1766ZM13.254 7.1766C13.2852 7.14535 13.3359 7.14535 13.3671 7.1766L11.9529 8.59081C12.7027 9.34062 13.9184 9.34062 14.6682 8.59081L13.254 7.1766ZM13.254 7.28973C13.2227 7.25849 13.2227 7.20784 13.254 7.1766L14.6682 8.59081C15.418 7.841 15.418 6.62533 14.6682 5.87552L13.254 7.28973ZM12.003 6.03874L13.254 7.28973L14.6682 5.87552L13.4172 4.62453L12.003 6.03874ZM13.3662 3.26131L12.003 4.62453L13.4172 6.03874L14.7804 4.67552L13.3662 3.26131ZM4.34324 15.5186L4.10057 16.397L6.02836 16.9296L6.27103 16.0511L4.34324 15.5186ZM5.3451 17.6231L6.21256 17.3695L5.65128 15.4498L4.78383 15.7035L5.3451 17.6231ZM6.63903 15.7025L6.01424 15.0777L4.60003 16.492L5.22481 17.1167L6.63903 15.7025ZM4.41467 19.8122L10.2922 18.0937L9.73096 16.174L3.8534 17.8925L4.41467 19.8122ZM1.92561 17.36C1.50842 18.8701 2.9109 20.2518 4.41467 19.8122L3.8534 17.8925L3.8534 17.8925L1.92561 17.36ZM3.57624 11.385L1.92561 17.36L3.8534 17.8925L5.50403 11.9176L3.57624 11.385ZM4.88213 9.14323C4.26034 9.76503 3.8104 10.5374 3.57624 11.385L5.50403 11.9176C5.6461 11.4033 5.91909 10.9347 6.29635 10.5574L4.88213 9.14323ZM6.25117 7.77419L4.88213 9.14323L6.29635 10.5574L7.66538 9.18841L6.25117 7.77419ZM12.0651 1.96023L6.25117 7.77419L7.66538 9.18841L13.4793 3.37445L12.0651 1.96023ZM17.722 1.96023C16.1599 0.398137 13.6272 0.398136 12.0651 1.96023L13.4793 3.37445C14.2604 2.5934 15.5267 2.5934 16.3078 3.37445L17.722 1.96023ZM19.6983 3.93653L17.722 1.96023L16.3078 3.37445L18.2841 5.35074L19.6983 3.93653ZM19.6983 9.59338C21.2604 8.03128 21.2604 5.49862 19.6983 3.93653L18.2841 5.35074C19.0651 6.13179 19.0651 7.39812 18.2841 8.17917L19.6983 9.59338ZM13.8843 15.4073L19.6983 9.59338L18.2841 8.17917L12.4701 13.9931L13.8843 15.4073ZM12.5153 16.7764L13.8843 15.4073L12.4701 13.9931L11.1011 15.3622L12.5153 16.7764ZM10.2922 18.0937C11.1321 17.8481 11.8966 17.3951 12.5153 16.7764L11.1011 15.3622C10.7197 15.7435 10.2486 16.0227 9.73096 16.174L10.2922 18.0937Z" fill="currentColor" mask="url(#path-1-inside-1)"/>
</svg>
