<svg width="22" height="23" viewBox="0 0 22 23" fill="none" xmlns="http://www.w3.org/2000/svg">
<path fill-rule="evenodd" clip-rule="evenodd" d="M3.41553 5.46787H18.5848C19.2254 5.46787 19.7448 5.98722 19.7448 6.62787V8.04679L17.2878 9.34566C16.8386 9.58312 16.667 10.1398 16.9045 10.589C17.1419 11.0382 17.6986 11.2098 18.1478 10.9723L19.7448 10.1281V16.8861C19.7448 17.5267 19.2254 18.0461 18.5848 18.0461H3.41553C2.77488 18.0461 2.25553 17.5267 2.25553 16.8861V10.1284L9.16777 13.7826C10.314 14.3885 11.6857 14.3885 12.8319 13.7826L15.2863 12.485C15.7355 12.2476 15.9072 11.6909 15.6697 11.2417C15.4322 10.7925 14.8756 10.6209 14.4264 10.8584L11.9719 12.1559C11.3637 12.4774 10.6359 12.4774 10.0277 12.1559L2.25553 8.04714V6.62787C2.25553 5.98722 2.77487 5.46787 3.41553 5.46787ZM0.415527 6.62787C0.415527 4.97101 1.75867 3.62787 3.41553 3.62787H18.5848C20.2416 3.62787 21.5848 4.97101 21.5848 6.62787V16.8861C21.5848 18.543 20.2416 19.8861 18.5848 19.8861H3.41553C1.75867 19.8861 0.415527 18.5429 0.415527 16.8861V6.62787Z" fill="currentColor"/>
</svg>
