<svg width="19" height="19" viewBox="0 0 19 19" fill="none" xmlns="http://www.w3.org/2000/svg">
<path fill-rule="evenodd" clip-rule="evenodd" d="M8.5835 2.17098C5.03967 2.17098 2.16683 5.04382 2.16683 8.58765C2.16683 12.1315 5.03967 15.0043 8.5835 15.0043C10.3117 15.0043 11.8803 14.3211 13.034 13.2101C13.0584 13.1783 13.0851 13.1477 13.1142 13.1186C13.1433 13.0895 13.1739 13.0628 13.2057 13.0384C14.3169 11.8847 15.0002 10.316 15.0002 8.58765C15.0002 5.04382 12.1273 2.17098 8.5835 2.17098ZM15.0293 13.7373C16.1583 12.326 16.8335 10.5356 16.8335 8.58765C16.8335 4.0313 13.1398 0.337646 8.5835 0.337646C4.02715 0.337646 0.333496 4.0313 0.333496 8.58765C0.333496 13.144 4.02715 16.8376 8.5835 16.8376C10.5314 16.8376 12.3215 16.1626 13.7329 15.0337L17.1017 18.4025C17.4597 18.7605 18.0401 18.7605 18.3981 18.4025C18.756 18.0445 18.756 17.4641 18.3981 17.1061L15.0293 13.7373ZM5.71952 9.4355C5.7305 9.47258 5.74219 9.50944 5.75461 9.54608C5.78924 9.6483 5.81202 9.75496 5.82201 9.862C5.85609 10.2273 5.74125 10.597 5.44053 10.8096C5.05168 11.0845 4.50521 10.9942 4.30566 10.5618C4.23597 10.4108 4.17444 10.2565 4.12125 10.0995C4.08502 9.99258 4.05266 9.88442 4.02422 9.77524C3.87953 9.21981 3.83634 8.63802 3.90192 8.05819C4.03184 6.9094 4.57966 5.8485 5.44107 5.07742C6.30249 4.30635 7.41736 3.87894 8.57347 3.87657C9.157 3.87537 9.73046 3.98249 10.2665 4.18758C10.3719 4.2279 10.4758 4.272 10.5781 4.3198C10.7283 4.38999 10.8749 4.46817 11.0173 4.5541C11.425 4.80015 11.4545 5.35324 11.1383 5.70938C10.8938 5.9848 10.5137 6.05815 10.1544 5.98397C10.0491 5.96223 9.94562 5.92782 9.84785 5.88212C9.8128 5.86574 9.77745 5.85005 9.74182 5.83505C9.3761 5.68111 8.98035 5.6003 8.57701 5.60113C7.84412 5.60264 7.13736 5.87358 6.59128 6.36239C6.0452 6.8512 5.69792 7.52375 5.61556 8.252C5.57023 8.65278 5.60687 9.05504 5.71952 9.4355Z" fill="#A5A6F6"/>
</svg>
