<svg width="25" height="24" viewBox="0 0 25 24" fill="none" xmlns="http://www.w3.org/2000/svg">
<mask id="path-1-inside-1_823:935" fill="white">
<path fill-rule="evenodd" clip-rule="evenodd" d="M13.4178 4C13.4178 1.79086 15.2087 0 17.4178 0H20.6859C22.895 0 24.6859 1.79086 24.6859 4V7.18903C24.6859 9.39817 22.895 11.189 20.6859 11.189H17.4178C15.2087 11.189 13.4178 9.39817 13.4178 7.18903V4ZM11.584 4.00049C11.584 1.79135 9.79318 0.000488281 7.58404 0.000488281H4.31598C2.10684 0.000488281 0.315979 1.79135 0.315979 4.00049V7.18952C0.315979 9.39866 2.10684 11.1895 4.31598 11.1895H7.58404C9.79318 11.1895 11.584 9.39866 11.584 7.18952V4.00049ZM11.584 16.811C11.584 14.6018 9.79318 12.811 7.58404 12.811H4.31598C2.10684 12.811 0.315979 14.6018 0.315979 16.811V20C0.315979 22.2091 2.10684 24 4.31598 24H7.58404C9.79318 24 11.584 22.2091 11.584 20V16.811ZM24.6859 16.811C24.6859 14.6018 22.895 12.811 20.6859 12.811H17.4178C15.2087 12.811 13.4178 14.6018 13.4178 16.811V20C13.4178 22.2091 15.2087 24 17.4178 24H20.6859C22.895 24 24.6859 22.2091 24.6859 20V16.811Z"/>
</mask>
<path d="M20.6859 -2H17.4178V2H20.6859V-2ZM26.6859 7.18903V4H22.6859V7.18903H26.6859ZM17.4178 13.189H20.6859V9.18903H17.4178V13.189ZM11.4178 4V7.18903H15.4178V4H11.4178ZM4.31598 2.00049H7.58404V-1.99951H4.31598V2.00049ZM2.31598 7.18952V4.00049H-1.68402V7.18952H2.31598ZM7.58404 9.18952H4.31598V13.1895H7.58404V9.18952ZM9.58404 4.00049V7.18952H13.584V4.00049H9.58404ZM4.31598 14.811H7.58404V10.811H4.31598V14.811ZM2.31598 20V16.811H-1.68402V20H2.31598ZM7.58404 22H4.31598V26H7.58404V22ZM9.58404 16.811V20H13.584V16.811H9.58404ZM17.4178 14.811H20.6859V10.811H17.4178V14.811ZM15.4178 20V16.811H11.4178V20H15.4178ZM20.6859 22H17.4178V26H20.6859V22ZM22.6859 16.811V20H26.6859V16.811H22.6859ZM20.6859 26C23.9996 26 26.6859 23.3137 26.6859 20H22.6859C22.6859 21.1046 21.7904 22 20.6859 22V26ZM11.4178 20C11.4178 23.3137 14.1041 26 17.4178 26V22C16.3132 22 15.4178 21.1046 15.4178 20H11.4178ZM20.6859 14.811C21.7904 14.811 22.6859 15.7064 22.6859 16.811H26.6859C26.6859 13.4973 23.9996 10.811 20.6859 10.811V14.811ZM17.4178 10.811C14.1041 10.811 11.4178 13.4973 11.4178 16.811H15.4178C15.4178 15.7064 16.3132 14.811 17.4178 14.811V10.811ZM7.58404 26C10.8977 26 13.584 23.3137 13.584 20H9.58404C9.58404 21.1046 8.68861 22 7.58404 22V26ZM-1.68402 20C-1.68402 23.3137 1.00227 26 4.31598 26V22C3.21141 22 2.31598 21.1046 2.31598 20H-1.68402ZM7.58404 14.811C8.68861 14.811 9.58404 15.7064 9.58404 16.811H13.584C13.584 13.4972 10.8977 10.811 7.58404 10.811V14.811ZM4.31598 10.811C1.00227 10.811 -1.68402 13.4972 -1.68402 16.811H2.31598C2.31598 15.7064 3.21141 14.811 4.31598 14.811V10.811ZM7.58404 13.1895C10.8977 13.1895 13.584 10.5032 13.584 7.18952H9.58404C9.58404 8.29409 8.68861 9.18952 7.58404 9.18952V13.1895ZM-1.68402 7.18952C-1.68402 10.5032 1.00227 13.1895 4.31598 13.1895V9.18952C3.21141 9.18952 2.31598 8.29409 2.31598 7.18952H-1.68402ZM7.58404 2.00049C8.68861 2.00049 9.58404 2.89592 9.58404 4.00049H13.584C13.584 0.68678 10.8977 -1.99951 7.58404 -1.99951V2.00049ZM4.31598 -1.99951C1.00227 -1.99951 -1.68402 0.686783 -1.68402 4.00049H2.31598C2.31598 2.89592 3.21141 2.00049 4.31598 2.00049V-1.99951ZM17.4178 9.18903C16.3132 9.18903 15.4178 8.2936 15.4178 7.18903H11.4178C11.4178 10.5027 14.1041 13.189 17.4178 13.189V9.18903ZM22.6859 7.18903C22.6859 8.2936 21.7904 9.18903 20.6859 9.18903V13.189C23.9996 13.189 26.6859 10.5027 26.6859 7.18903H22.6859ZM17.4178 -2C14.1041 -2 11.4178 0.686293 11.4178 4H15.4178C15.4178 2.89543 16.3132 2 17.4178 2V-2ZM20.6859 2C21.7904 2 22.6859 2.89543 22.6859 4H26.6859C26.6859 0.686294 23.9996 -2 20.6859 -2V2Z" fill="currentColor" mask="url(#path-1-inside-1_823:935)"/>
</svg>
