<svg width="19" height="19" viewBox="0 0 19 19" fill="none" xmlns="http://www.w3.org/2000/svg">
<path fill-rule="evenodd" clip-rule="evenodd" d="M3.96834 0.447266C1.80338 0.447266 0.0483398 2.20231 0.0483398 4.36727V14.3565C0.0483398 16.5215 1.80339 18.2765 3.96834 18.2765H10.5164C11.0245 18.2765 11.4364 17.8646 11.4364 17.3565C11.4364 16.8484 11.0245 16.4365 10.5164 16.4365H3.96834C2.81959 16.4365 1.88834 15.5053 1.88834 14.3565V4.36727C1.88834 3.21851 2.81959 2.28727 3.96834 2.28727H10.5164C11.0245 2.28727 11.4364 1.87537 11.4364 1.36727C11.4364 0.859164 11.0245 0.447266 10.5164 0.447266H3.96834ZM13.3252 4.23962C12.9266 4.5548 12.8591 5.13338 13.1742 5.53191L15.5398 8.52314H8.79583C8.28773 8.52314 7.87583 8.93504 7.87583 9.44314C7.87583 9.95124 8.28773 10.3631 8.79583 10.3631H15.4426L13.1628 13.3691C12.8558 13.7739 12.9351 14.351 13.3399 14.6581C13.7447 14.9651 14.3218 14.8858 14.6289 14.481L18.0992 9.90531C18.3526 9.57109 18.3479 9.10771 18.0877 8.77869L14.6175 4.39056C14.3023 3.99202 13.7237 3.92445 13.3252 4.23962Z" fill="currentColor"/>
</svg>
