<svg width="22" height="22" viewBox="0 0 22 22" fill="none" xmlns="http://www.w3.org/2000/svg">
<path fill-rule="evenodd" clip-rule="evenodd" d="M11.9198 5.16092C11.9198 5.66902 11.5079 6.08091 10.9998 6.08091C10.4917 6.08091 10.0798 5.66902 10.0798 5.16091V3.96047H8.87947C8.37137 3.96047 7.95947 3.54857 7.95947 3.04047C7.95947 2.53236 8.37137 2.12047 8.87947 2.12047H10.0798V0.92C10.0798 0.411898 10.4917 0 10.9998 0C11.5079 0 11.9198 0.411898 11.9198 0.92V2.12047H13.1204C13.6285 2.12047 14.0404 2.53236 14.0404 3.04047C14.0404 3.54857 13.6285 3.96047 13.1204 3.96047H11.9198V5.16092ZM20.4199 15.8865C20.4199 16.3946 20.008 16.8065 19.4999 16.8065C18.9918 16.8065 18.5799 16.3946 18.5799 15.8865V15.2265H17.92C17.4119 15.2265 17 14.8146 17 14.3065C17 13.7984 17.4119 13.3865 17.92 13.3865H18.5799V12.7265C18.5799 12.2184 18.9918 11.8065 19.4999 11.8065C20.008 11.8065 20.4199 12.2184 20.4199 12.7265V13.3865H21.08C21.5881 13.3865 22 13.7984 22 14.3065C22 14.8146 21.5881 15.2265 21.08 15.2265H20.4199V15.8865ZM5.7382 10.6484C6.2463 10.6484 6.6582 10.2365 6.6582 9.72838V9.06839H7.31828C7.82638 9.06839 8.23828 8.6565 8.23828 8.14839C8.23828 7.64029 7.82638 7.22839 7.31828 7.22839H6.6582V6.56838C6.6582 6.06027 6.24631 5.64838 5.7382 5.64838C5.2301 5.64838 4.8182 6.06027 4.8182 6.56838V7.22839H4.15828C3.65018 7.22839 3.23828 7.64029 3.23828 8.14839C3.23828 8.6565 3.65018 9.06839 4.15828 9.06839H4.8182V9.72838C4.8182 10.2365 5.2301 10.6484 5.7382 10.6484ZM3.16423 20.7521C1.942 19.5299 1.942 17.5483 3.16423 16.3261L14.4096 5.08067C15.6319 3.85844 17.6135 3.85845 18.8357 5.08067C20.0579 6.30289 20.0579 8.28451 18.8357 9.50674L14.4781 13.8644C14.1188 14.2237 13.5363 14.2237 13.177 13.8644C12.8177 13.5051 12.8177 12.9226 13.177 12.5633L14.502 11.2383L12.6781 9.41434L4.4653 17.6272C3.96164 18.1308 3.96164 18.9474 4.4653 19.4511C4.96896 19.9547 5.78556 19.9547 6.28922 19.4511L8.17955 17.5607C8.53883 17.2015 9.12134 17.2015 9.48062 17.5607C9.8399 17.92 9.8399 18.5025 9.48062 18.8618L7.5903 20.7521C6.36807 21.9744 4.38645 21.9744 3.16423 20.7521ZM17.5346 8.20566L15.8031 9.93718L13.9792 8.11327L15.7107 6.38175C16.2144 5.87809 17.031 5.87809 17.5346 6.38175C18.0383 6.88541 18.0383 7.702 17.5346 8.20566ZM10.3606 16.6807C10.0013 16.3215 10.0013 15.7389 10.3606 15.3797L11.0977 14.6426C11.457 14.2833 12.0395 14.2833 12.3988 14.6426C12.758 15.0019 12.758 15.5844 12.3988 15.9437L11.6617 16.6807C11.3024 17.04 10.7199 17.04 10.3606 16.6807Z" fill="currentColor"/>
</svg>
