<svg width="39" height="39" viewBox="0 0 39 39" fill="none" xmlns="http://www.w3.org/2000/svg">
<g filter="url(#filter0_di)">
<path fill-rule="evenodd" clip-rule="evenodd" d="M13.3345 13.4351H25.6678C26.2201 13.4351 26.6678 13.8828 26.6678 14.4351V15.0781H12.3345V14.4351C12.3345 13.8828 12.7822 13.4351 13.3345 13.4351ZM28.6678 14.4351V15.228C29.3949 15.5274 29.9068 16.243 29.9068 17.0781V19.4773C29.9068 19.4916 29.9065 19.5059 29.9059 19.5201C29.9001 20.6673 29.4273 21.704 28.6678 22.4499V28.565C28.6678 30.2219 27.3247 31.565 25.6678 31.565H13.3345C11.6776 31.565 10.3345 30.2219 10.3345 28.565V22.4539C9.56794 21.7032 9.09229 20.6566 9.09229 19.4989V19.4956L9.09232 19.4863L9.09229 19.4778V17.0781C9.09229 16.2417 9.60566 15.5253 10.3345 15.2267V14.4351C10.3345 12.7782 11.6776 11.4351 13.3345 11.4351H25.6678C27.3247 11.4351 28.6678 12.7782 28.6678 14.4351ZM25.7699 23.6349C26.0783 23.6349 26.3787 23.6011 26.6678 23.5371V28.565C26.6678 29.1173 26.2201 29.565 25.6678 29.565H21.6696V27.6176C21.6696 27.0653 21.2219 26.6176 20.6696 26.6176H18.3308C17.7786 26.6176 17.3308 27.0653 17.3308 27.6176V29.565H13.3345C12.7822 29.565 12.3345 29.1173 12.3345 28.565V23.5381C12.6223 23.6015 12.9214 23.6349 13.2283 23.6349C14.4831 23.6349 15.6062 23.0763 16.3642 22.1955C17.1221 23.0763 18.2452 23.6349 19.5 23.6349C20.7543 23.6349 21.877 23.0767 22.635 22.1966C23.3929 23.0767 24.5156 23.6349 25.7699 23.6349ZM27.9068 17.0781L11.0923 17.0781V19.466L11.0923 19.4811L11.0923 19.4989C11.0923 20.6786 12.0486 21.6349 13.2283 21.6349C14.1275 21.6349 14.8992 21.079 15.2139 20.2884C15.3902 19.8455 15.8262 19.5039 16.3642 19.5039C16.9021 19.5039 17.3381 19.8455 17.5144 20.2884C17.8291 21.079 18.6009 21.6349 19.5 21.6349C20.3994 21.6349 21.1713 21.0787 21.4859 20.2878C21.662 19.8451 22.0976 19.5039 22.635 19.5039C23.1723 19.5039 23.608 19.8451 23.784 20.2878C24.0986 21.0787 24.8705 21.6349 25.7699 21.6349C26.9496 21.6349 27.9059 20.6786 27.9059 19.4989L27.9059 19.485C27.9058 19.4684 27.9061 19.4519 27.9068 19.4355L27.9068 17.0781Z" fill="url(#paint0_linear)"/>
</g>
<defs>
<filter id="filter0_di" x="-1.5" y="-1.5" width="42" height="42" filterUnits="userSpaceOnUse" color-interpolation-filters="sRGB">
<feFlood flood-opacity="0" result="BackgroundImageFix"/>
<feColorMatrix in="SourceAlpha" type="matrix" values="0 0 0 0 0 0 0 0 0 0 0 0 0 0 0 0 0 0 127 0" result="hardAlpha"/>
<feOffset dy="-2"/>
<feGaussianBlur stdDeviation="4.5"/>
<feComposite in2="hardAlpha" operator="out"/>
<feColorMatrix type="matrix" values="0 0 0 0 0.479167 0 0 0 0 0.8125 0 0 0 0 1 0 0 0 0.47 0"/>
<feBlend mode="normal" in2="BackgroundImageFix" result="effect1_dropShadow"/>
<feBlend mode="normal" in="SourceGraphic" in2="effect1_dropShadow" result="shape"/>
<feColorMatrix in="SourceAlpha" type="matrix" values="0 0 0 0 0 0 0 0 0 0 0 0 0 0 0 0 0 0 127 0" result="hardAlpha"/>
<feMorphology radius="1" operator="erode" in="SourceAlpha" result="effect2_innerShadow"/>
<feOffset/>
<feGaussianBlur stdDeviation="4"/>
<feComposite in2="hardAlpha" operator="arithmetic" k2="-1" k3="1"/>
<feColorMatrix type="matrix" values="0 0 0 0 0.420833 0 0 0 0 1 0 0 0 0 0.9305 0 0 0 0.51 0"/>
<feBlend mode="normal" in2="shape" result="effect2_innerShadow"/>
</filter>
<linearGradient id="paint0_linear" x1="7.68339" y1="16.8622" x2="31.8355" y2="17.6675" gradientUnits="userSpaceOnUse">
<stop stop-color="#66A500"/>
<stop offset="1" stop-color="#008152"/>
</linearGradient>
</defs>
</svg>
