<svg width="23" height="23" viewBox="0 0 23 23" fill="none" xmlns="http://www.w3.org/2000/svg">
<g clip-path="url(#clip0)">
<path d="M11.1259 13.2576C10.9959 13.2576 10.8832 13.2186 10.7879 13.1406C10.6926 13.0626 10.6449 12.9283 10.6449 12.7376C10.6449 12.3996 10.7446 12.014 10.9439 11.5806C11.1432 11.1473 11.4509 10.7356 11.8669 10.3456C12.0576 10.1636 12.2179 10.0076 12.3479 9.87764C12.4779 9.73897 12.5819 9.60464 12.6599 9.47464C12.7379 9.34464 12.7942 9.20597 12.8289 9.05864C12.8636 8.9113 12.8809 8.73797 12.8809 8.53864C12.8809 8.0793 12.7422 7.73697 12.4649 7.51164C12.1962 7.27764 11.8366 7.16064 11.3859 7.16064C11.1692 7.16064 10.9656 7.19097 10.7749 7.25164C10.5929 7.3123 10.4326 7.39897 10.2939 7.51164C10.1552 7.61564 10.0426 7.74997 9.95589 7.91464C9.87789 8.07064 9.83456 8.24397 9.82589 8.43464C9.81722 8.59064 9.76089 8.70764 9.65689 8.78564C9.55289 8.86364 9.43156 8.90264 9.29289 8.90264C8.98956 8.89397 8.83789 8.75097 8.83789 8.47364C8.83789 8.15297 8.90722 7.8583 9.04589 7.58964C9.18456 7.32097 9.37089 7.0913 9.60489 6.90064C9.83889 6.7013 10.1119 6.54964 10.4239 6.44564C10.7359 6.33297 11.0696 6.27664 11.4249 6.27664C12.1616 6.26797 12.7466 6.4673 13.1799 6.87464C13.6219 7.28197 13.8429 7.86264 13.8429 8.61664C13.8342 8.9633 13.7519 9.2883 13.5959 9.59164C13.4486 9.89497 13.1886 10.2286 12.8159 10.5926C12.5646 10.8353 12.3566 11.0476 12.1919 11.2296C12.0359 11.403 11.9146 11.5676 11.8279 11.7236C11.7412 11.8796 11.6806 12.0356 11.6459 12.1916C11.6199 12.3476 11.6069 12.5296 11.6069 12.7376C11.6069 13.0843 11.4466 13.2576 11.1259 13.2576ZM11.1389 16.0656C11.3382 16.0656 11.5029 15.9963 11.6329 15.8576C11.7716 15.719 11.8409 15.5586 11.8409 15.3766C11.8409 15.1773 11.7716 15.0126 11.6329 14.8826C11.5029 14.744 11.3382 14.6746 11.1389 14.6746C10.9482 14.6746 10.7836 14.744 10.6449 14.8826C10.5149 15.0126 10.4499 15.1773 10.4499 15.3766C10.4499 15.5586 10.5149 15.719 10.6449 15.8576C10.7836 15.9963 10.9482 16.0656 11.1389 16.0656Z" fill="#7879F1"/>
<path d="M10.7879 13.1406L10.9462 12.9471L10.9462 12.9471L10.7879 13.1406ZM10.9439 11.5806L10.7168 11.4762H10.7168L10.9439 11.5806ZM11.8669 10.3456L12.0379 10.528L12.0395 10.5265L11.8669 10.3456ZM12.3479 9.87764L12.5248 10.0545L12.5303 10.0486L12.3479 9.87764ZM12.8289 9.05864L13.0722 9.1159V9.1159L12.8289 9.05864ZM12.4649 7.51164L12.3006 7.70027L12.3072 7.70567L12.4649 7.51164ZM10.7749 7.25164L10.6991 7.01338L10.6958 7.01447L10.7749 7.25164ZM10.2939 7.51164L10.444 7.71179L10.4515 7.70567L10.2939 7.51164ZM9.95589 7.91464L9.73461 7.79818L9.73228 7.80283L9.95589 7.91464ZM9.82589 8.43464L10.0755 8.44851L10.0756 8.44599L9.82589 8.43464ZM9.65689 8.78564L9.50689 8.58564L9.50689 8.58564L9.65689 8.78564ZM9.29289 8.90264L9.28575 9.15264H9.29289V8.90264ZM9.04589 7.58964L9.26805 7.7043L9.26805 7.7043L9.04589 7.58964ZM9.60489 6.90064L9.76285 7.09449L9.76701 7.09095L9.60489 6.90064ZM10.4239 6.44564L10.503 6.68288L10.5088 6.68078L10.4239 6.44564ZM11.4249 6.27664V6.52666L11.4278 6.52662L11.4249 6.27664ZM13.1799 6.87464L13.0087 7.0568L13.0105 7.05848L13.1799 6.87464ZM13.8429 8.61664L14.0929 8.62289V8.61664H13.8429ZM13.5959 9.59164L13.3735 9.47727L13.371 9.48241L13.5959 9.59164ZM12.8159 10.5926L12.9895 10.7725L12.9906 10.7715L12.8159 10.5926ZM12.1919 11.2296L12.0065 11.0619L12.0061 11.0624L12.1919 11.2296ZM11.6459 12.1916L11.4015 12.1373L11.3993 12.1505L11.6459 12.1916ZM11.6329 15.8576L11.456 15.6808L11.4505 15.6867L11.6329 15.8576ZM11.6329 14.8826L11.4505 15.0536L11.456 15.0595L11.4619 15.065L11.6329 14.8826ZM10.6449 14.8826L10.8217 15.0594H10.8217L10.6449 14.8826ZM10.6449 15.8576L10.4624 16.0287L10.4681 16.0344L10.6449 15.8576ZM11.1259 13.0076C11.0501 13.0076 10.9943 12.9865 10.9462 12.9471L10.6296 13.3341C10.7722 13.4508 10.9416 13.5076 11.1259 13.5076V13.0076ZM10.9462 12.9471C10.9347 12.9378 10.8949 12.8947 10.8949 12.7376H10.3949C10.3949 12.9619 10.4504 13.1875 10.6296 13.3341L10.9462 12.9471ZM10.8949 12.7376C10.8949 12.4474 10.981 12.0982 11.171 11.6851L10.7168 11.4762C10.5081 11.9297 10.3949 12.3519 10.3949 12.7376H10.8949ZM11.171 11.6851C11.3545 11.2863 11.6409 10.9002 12.0379 10.528L11.6959 10.1633C11.2608 10.5711 10.932 11.0083 10.7168 11.4762L11.171 11.6851ZM12.0395 10.5265C12.231 10.3437 12.3929 10.1862 12.5247 10.0544L12.1711 9.70086C12.0429 9.82905 11.8841 9.98362 11.6943 10.1648L12.0395 10.5265ZM12.5303 10.0486C12.6695 9.90012 12.7852 9.75174 12.8743 9.60326L12.4455 9.34601C12.3786 9.45754 12.2863 9.57783 12.1655 9.70665L12.5303 10.0486ZM12.8743 9.60326C12.9655 9.45115 13.0317 9.28842 13.0722 9.1159L12.5855 9.00138C12.5568 9.12353 12.5103 9.23812 12.4455 9.34601L12.8743 9.60326ZM13.0722 9.1159C13.1125 8.94497 13.1309 8.75156 13.1309 8.53864H12.6309C12.6309 8.72438 12.6147 8.87764 12.5855 9.00138L13.0722 9.1159ZM13.1309 8.53864C13.1309 8.0273 12.9742 7.60337 12.6225 7.31761L12.3072 7.70567C12.5102 7.87057 12.6309 8.13131 12.6309 8.53864H13.1309ZM12.6291 7.32312C12.3038 7.03984 11.8804 6.91064 11.3859 6.91064V7.41064C11.7927 7.41064 12.0886 7.51543 12.3007 7.70016L12.6291 7.32312ZM11.3859 6.91064C11.1456 6.91064 10.9162 6.94432 10.6991 7.01341L10.8507 7.48987C11.0149 7.43762 11.1928 7.41064 11.3859 7.41064V6.91064ZM10.6958 7.01447C10.4874 7.08395 10.3 7.18458 10.1362 7.31761L10.4515 7.70567C10.5651 7.61336 10.6984 7.54065 10.8539 7.48881L10.6958 7.01447ZM10.1439 7.31164C9.97344 7.43948 9.83729 7.6032 9.73466 7.7982L10.1771 8.03107C10.2478 7.89674 10.337 7.7918 10.4439 7.71164L10.1439 7.31164ZM9.73228 7.80283C9.63722 7.99297 9.58625 8.201 9.57615 8.42329L10.0756 8.44599C10.0829 8.28694 10.1186 8.14831 10.1795 8.02644L9.73228 7.80283ZM9.57628 8.42077C9.57079 8.51944 9.53986 8.56091 9.50689 8.58564L9.80689 8.98564C9.98192 8.85436 10.0637 8.66183 10.0755 8.44851L9.57628 8.42077ZM9.50689 8.58564C9.44914 8.62895 9.3813 8.65264 9.29289 8.65264V9.15264C9.48181 9.15264 9.65664 9.09832 9.80689 8.98564L9.50689 8.58564ZM9.30003 8.65274C9.18218 8.64937 9.13779 8.6208 9.12314 8.60699C9.1124 8.59686 9.08789 8.56719 9.08789 8.47364H8.58789C8.58789 8.65741 8.63922 8.83792 8.78014 8.97078C8.91716 9.09998 9.10027 9.14724 9.28575 9.15254L9.30003 8.65274ZM9.08789 8.47364C9.08789 8.19038 9.14878 7.93537 9.26805 7.7043L8.82374 7.47498C8.66566 7.78124 8.58789 8.11556 8.58789 8.47364H9.08789ZM9.26805 7.7043C9.39099 7.46609 9.55547 7.26339 9.76281 7.09445L9.44697 6.70683C9.18631 6.91922 8.97812 7.17585 8.82374 7.47498L9.26805 7.7043ZM9.76701 7.09095C9.97492 6.91384 10.2192 6.77738 10.5029 6.68281L10.3448 6.20847C10.0045 6.3219 9.70286 6.48877 9.44277 6.71033L9.76701 7.09095ZM10.5088 6.68078C10.7917 6.57862 11.0964 6.52664 11.4249 6.52664V6.02664C11.0427 6.02664 10.6801 6.08732 10.339 6.2105L10.5088 6.68078ZM11.4278 6.52662C12.1161 6.51852 12.6331 6.70375 13.0087 7.05679L13.3511 6.69248C12.86 6.23086 12.207 6.01742 11.4219 6.02666L11.4278 6.52662ZM13.0105 7.05848C13.3886 7.40698 13.5929 7.91349 13.5929 8.61664H14.0929C14.0929 7.81179 13.8551 7.15696 13.3493 6.6908L13.0105 7.05848ZM13.593 8.61039C13.5852 8.92006 13.5121 9.20803 13.3736 9.4773L13.8182 9.70597C13.9917 9.36858 14.0832 9.00655 14.0928 8.62289L13.593 8.61039ZM13.371 9.48241C13.2412 9.74969 13.0032 10.0602 12.6412 10.4138L12.9906 10.7715C13.3739 10.3971 13.6559 10.0403 13.8208 9.70086L13.371 9.48241ZM12.6422 10.4128C12.3884 10.6579 12.1762 10.8744 12.0065 11.0619L12.3773 11.3974C12.537 11.2209 12.7407 11.0127 12.9895 10.7725L12.6422 10.4128ZM12.0061 11.0624C11.8411 11.2457 11.7075 11.4256 11.6094 11.6022L12.0464 11.845C12.1217 11.7096 12.2307 11.5602 12.3777 11.3969L12.0061 11.0624ZM11.6094 11.6022C11.5123 11.7769 11.4423 11.9553 11.4018 12.1374L11.8899 12.2459C11.9188 12.1159 11.9701 11.9824 12.0464 11.845L11.6094 11.6022ZM11.3993 12.1505C11.3705 12.3236 11.3569 12.5199 11.3569 12.7376H11.8569C11.8569 12.5394 11.8693 12.3717 11.8925 12.2327L11.3993 12.1505ZM11.3569 12.7376C11.3569 12.8771 11.3242 12.935 11.3031 12.9579C11.2854 12.977 11.2425 13.0076 11.1259 13.0076V13.5076C11.33 13.5076 11.5276 13.4516 11.6702 13.2974C11.8094 13.1469 11.8569 12.9449 11.8569 12.7376H11.3569ZM11.1389 16.3156C11.4035 16.3156 11.6355 16.2204 11.8153 16.0286L11.4505 15.6867C11.3703 15.7722 11.2729 15.8156 11.1389 15.8156V16.3156ZM11.8097 16.0344C11.9912 15.8529 12.0909 15.6304 12.0909 15.3766H11.5909C11.5909 15.4869 11.5519 15.5851 11.4561 15.6809L11.8097 16.0344ZM12.0909 15.3766C12.0909 15.112 11.9957 14.88 11.8039 14.7003L11.4619 15.065C11.5475 15.1452 11.5909 15.2426 11.5909 15.3766H12.0909ZM11.8153 14.7117C11.6355 14.5199 11.4035 14.4246 11.1389 14.4246V14.9246C11.2729 14.9246 11.3703 14.9681 11.4505 15.0536L11.8153 14.7117ZM11.1389 14.4246C10.8798 14.4246 10.6522 14.5218 10.4681 14.7059L10.8217 15.0594C10.9149 14.9661 11.0166 14.9246 11.1389 14.9246V14.4246ZM10.4681 14.7059C10.287 14.8869 10.1999 15.1172 10.1999 15.3766H10.6999C10.6999 15.2374 10.7427 15.1383 10.8217 15.0594L10.4681 14.7059ZM10.1999 15.3766C10.1999 15.6252 10.2912 15.8459 10.4625 16.0286L10.8273 15.6867C10.7386 15.5921 10.6999 15.4921 10.6999 15.3766H10.1999ZM10.4681 16.0344C10.6522 16.2185 10.8798 16.3156 11.1389 16.3156V15.8156C11.0166 15.8156 10.9149 15.7741 10.8217 15.6809L10.4681 16.0344Z" fill="currentColor"/>
<circle cx="11.0938" cy="10.9639" r="9.10203" stroke="currentColor" stroke-width="1.84" stroke-linecap="round"/>
</g>
<defs>
<clipPath id="clip0">
<rect width="22" height="22" fill="white" transform="translate(0.09375 0.0136719)"/>
</clipPath>
</defs>
</svg>
