<svg width="40" height="39" viewBox="0 0 40 39" fill="none" xmlns="http://www.w3.org/2000/svg">
<g filter="url(#filter0_di)">
<path fill-rule="evenodd" clip-rule="evenodd" d="M27.8442 11.3856C27.6865 10.9424 27.0599 10.9424 26.9021 11.3856L26.3221 13.0152C26.2758 13.1453 26.1778 13.2505 26.0512 13.3057L24.4488 14.006C24.0491 14.1807 24.0491 14.7477 24.4488 14.9223L26.0512 15.6226C26.1778 15.6779 26.2758 15.783 26.3221 15.9131L26.9021 17.5428C27.0599 17.9859 27.6865 17.9859 27.8442 17.5428L28.4243 15.9131C28.4706 15.783 28.5686 15.6779 28.6951 15.6226L30.2976 14.9223C30.6973 14.7477 30.6973 14.1807 30.2976 14.006L28.6951 13.3057C28.5686 13.2505 28.4706 13.1453 28.4243 13.0152L27.8442 11.3856ZM20.813 12.8151C20.2807 10.8435 17.4836 10.8436 16.9513 12.8151L15.5957 17.8359L10.8706 19.6303C9.15057 20.2834 9.15057 22.7166 10.8706 23.3697L15.5957 25.1641L16.9513 30.1849C17.4836 32.1565 20.2807 32.1564 20.813 30.1849L22.1686 25.1641L26.8937 23.3697C28.6137 22.7166 28.6137 20.2834 26.8937 19.6303L22.1686 17.8359L20.813 12.8151ZM18.8821 13.3364L20.2377 18.3573C20.4049 18.9765 20.8589 19.478 21.4586 19.7057L26.1837 21.5L21.4586 23.2943C20.8589 23.522 20.4049 24.0235 20.2377 24.6427L18.8821 29.6636L17.5266 24.6427C17.3594 24.0235 16.9053 23.522 16.3057 23.2943L11.5806 21.5L16.3057 19.7057C16.9053 19.478 17.3594 18.9765 17.5266 18.3573L18.8821 13.3364Z" fill="url(#paint0_linear)"/>
</g>
<defs>
<filter id="filter0_di" x="-1" y="-1.5" width="42" height="42" filterUnits="userSpaceOnUse" color-interpolation-filters="sRGB">
<feFlood flood-opacity="0" result="BackgroundImageFix"/>
<feColorMatrix in="SourceAlpha" type="matrix" values="0 0 0 0 0 0 0 0 0 0 0 0 0 0 0 0 0 0 127 0" result="hardAlpha"/>
<feOffset dy="-2"/>
<feGaussianBlur stdDeviation="4.5"/>
<feComposite in2="hardAlpha" operator="out"/>
<feColorMatrix type="matrix" values="0 0 0 0 1 0 0 0 0 0.885417 0 0 0 0 0.479167 0 0 0 0.47 0"/>
<feBlend mode="normal" in2="BackgroundImageFix" result="effect1_dropShadow"/>
<feBlend mode="normal" in="SourceGraphic" in2="effect1_dropShadow" result="shape"/>
<feColorMatrix in="SourceAlpha" type="matrix" values="0 0 0 0 0 0 0 0 0 0 0 0 0 0 0 0 0 0 127 0" result="hardAlpha"/>
<feMorphology radius="1" operator="erode" in="SourceAlpha" result="effect2_innerShadow"/>
<feOffset/>
<feGaussianBlur stdDeviation="4"/>
<feComposite in2="hardAlpha" operator="arithmetic" k2="-1" k3="1"/>
<feColorMatrix type="matrix" values="0 0 0 0 1 0 0 0 0 0.942083 0 0 0 0 0.420833 0 0 0 0.54 0"/>
<feBlend mode="normal" in2="shape" result="effect2_innerShadow"/>
</filter>
<linearGradient id="paint0_linear" x1="8.15797" y1="16.6099" x2="32.5456" y2="17.4117" gradientUnits="userSpaceOnUse">
<stop stop-color="#EBC540"/>
<stop offset="1" stop-color="#FA7373"/>
</linearGradient>
</defs>
</svg>
