<svg width="20" height="21" viewBox="0 0 20 21" fill="none" xmlns="http://www.w3.org/2000/svg">
<path fill-rule="evenodd" clip-rule="evenodd" d="M6.23923 10.7574L5.77741 11.9632C5.72499 12.1001 5.67417 12.2365 5.62492 12.3725L8.47215 15.2197C8.60662 15.1707 8.74165 15.1202 8.87711 15.068L10.0846 14.6028L10.9997 15.5178L11.6904 16.2086C11.9377 16.4558 12.2221 16.4993 12.3755 16.4709C12.4271 16.4613 12.4495 16.4472 12.4548 16.4433C12.4612 16.4336 12.4746 16.407 12.486 16.3502C12.628 15.6413 12.681 14.9431 12.6488 14.2735L12.5985 13.2253L13.4351 12.5917C13.9383 12.2106 14.4182 11.7971 14.8669 11.3484C18.0523 8.1629 18.1273 4.69366 17.9036 2.94434C16.1231 2.73378 12.6093 2.82652 9.47716 5.95867C9.03277 6.40306 8.62206 6.88155 8.24266 7.38598L7.609 8.22848L6.55603 8.17749C5.88536 8.14502 5.18606 8.19796 4.47592 8.34019C4.4192 8.35155 4.39255 8.36496 4.38283 8.37133C4.37892 8.37666 4.36483 8.39908 4.35527 8.45064C4.32682 8.60409 4.37037 8.8885 4.61759 9.13572L5.32618 9.84431L6.23923 10.7574ZM4.37829 8.37503C4.37812 8.37491 4.37937 8.37362 4.38254 8.37152C4.38004 8.3741 4.37845 8.37515 4.37829 8.37503ZM12.4511 16.4479C12.451 16.4477 12.4521 16.4461 12.4546 16.4436C12.4525 16.4468 12.4512 16.4481 12.4511 16.4479ZM14.6365 14.1781C15.2066 13.7464 15.756 13.2735 16.274 12.7555C20.7334 8.29611 20.0624 3.29318 19.7101 1.73487C19.6394 1.42226 19.4022 1.18936 19.0886 1.12308C17.5159 0.790645 12.4555 0.166085 8.07002 4.55152C7.55419 5.06736 7.08287 5.61733 6.65229 6.18982C5.811 6.14908 4.94809 6.21611 4.08513 6.38894C2.14973 6.77655 1.81473 9.14714 3.21045 10.5429L3.91904 11.2515C3.77919 11.6166 3.65026 11.9782 3.53142 12.3336C3.41368 12.6858 3.51067 13.0725 3.77325 13.3351L7.51031 17.0721C7.77291 17.3347 8.15965 17.4318 8.51178 17.3137C8.86665 17.1948 9.22772 17.0655 9.59252 16.9249L10.2833 17.6157C11.679 19.0114 14.0496 18.6764 14.4372 16.741C14.6098 15.8795 14.6769 15.018 14.6365 14.1781ZM3.21974 16.9179C2.76057 17.3871 2.47319 17.9589 2.29961 18.5344C2.86316 18.3615 3.43033 18.0727 3.90727 17.6054L3.21974 16.9179ZM4.08385 17.7833L4.08327 17.7827C4.0828 17.7821 4.08207 17.7811 4.08114 17.7795C4.08318 17.7818 4.08397 17.7832 4.08385 17.7833ZM3.04175 16.7412C3.04185 16.7411 3.04323 16.7419 3.04557 16.7439C3.04282 16.7423 3.04165 16.7413 3.04175 16.7412ZM4.45568 15.3396C3.86608 14.75 2.94706 14.5595 2.29423 15.0782C2.13809 15.2022 1.98547 15.3376 1.8378 15.4853C0.691724 16.6314 0.278103 18.084 0.139037 19.1692C0.0223654 20.0797 0.745079 20.8111 1.65589 20.6972C2.73388 20.5624 4.17793 20.1493 5.33988 18.9874C5.48536 18.8419 5.61896 18.6921 5.74163 18.5393C6.26611 17.886 6.07811 16.962 5.48571 16.3696L4.45568 15.3396ZM12.9367 9.42449C13.8078 9.42449 14.514 8.71829 14.514 7.84715C14.514 6.97601 13.8078 6.26981 12.9367 6.26981C12.0656 6.26981 11.3594 6.97601 11.3594 7.84715C11.3594 8.71829 12.0656 9.42449 12.9367 9.42449Z" fill="currentColor"/>
</svg>
