<svg width="21" height="21" viewBox="0 0 21 21" fill="none" xmlns="http://www.w3.org/2000/svg">
<path d="M19.4048 9.32508L20.0553 9.97562C20.4146 9.61634 20.4146 9.03382 20.0553 8.67454L19.4048 9.32508ZM11.776 16.9539L10.856 16.9539C10.856 17.326 11.0801 17.6614 11.4239 17.8038C11.7677 17.9462 12.1634 17.8675 12.4265 17.6044L11.776 16.9539ZM11.776 1.69629L12.4265 1.04575C12.1634 0.782632 11.7677 0.703921 11.4239 0.84632C11.0801 0.988718 10.856 1.32418 10.856 1.69629L11.776 1.69629ZM11.776 6.2199L11.8233 7.13868C12.3124 7.11351 12.696 6.70962 12.696 6.2199L11.776 6.2199ZM1.29272 19.3309L0.372722 19.3309C0.372722 19.7955 0.719113 20.1872 1.18022 20.244C1.64134 20.3008 2.07244 20.0049 2.18521 19.5542L1.29272 19.3309ZM11.776 12.3389L12.696 12.3389C12.696 11.8574 12.3247 11.4573 11.8445 11.4215L11.776 12.3389ZM18.7542 8.67454L11.1255 16.3033L12.4265 17.6044L20.0553 9.97562L18.7542 8.67454ZM11.1255 2.34683L18.7542 9.97562L20.0553 8.67454L12.4265 1.04575L11.1255 2.34683ZM12.696 6.2199L12.696 1.69629L10.856 1.69629L10.856 6.2199L12.696 6.2199ZM2.21272 19.3309C2.21272 15.1167 3.42845 12.1444 5.19142 10.2018C6.9566 8.25679 9.33965 7.26651 11.8233 7.13868L11.7287 5.30111C8.81445 5.4511 5.95587 6.62157 3.82888 8.96524C1.69969 11.3114 0.372722 14.7556 0.372722 19.3309L2.21272 19.3309ZM11.8445 11.4215C10.1273 11.2933 7.71693 11.5152 5.50427 12.6154C3.25809 13.7323 1.24127 15.7462 0.400233 19.1076L2.18521 19.5542C2.88299 16.7654 4.5111 15.1641 6.3235 14.263C8.16941 13.3451 10.2313 13.1461 11.7075 13.2564L11.8445 11.4215ZM12.696 16.9539L12.696 12.3389L10.856 12.3389L10.856 16.9539L12.696 16.9539Z" fill="currentColor"/>
</svg>
