<svg width="17" height="13" viewBox="0 0 17 13" fill="none" xmlns="http://www.w3.org/2000/svg">
<path fill-rule="evenodd" clip-rule="evenodd" d="M2.20551 2.68585C2.20551 2.21656 2.58595 1.83613 3.05524 1.83613H5.71088L5.71088 2.14389C5.71088 2.51473 6.01151 2.81537 6.38236 2.81537C6.75321 2.81537 7.05384 2.51473 7.05384 2.14389L7.05384 1.83613H14.7756C15.2449 1.83613 15.6254 2.21656 15.6254 2.68585V3.83461C14.6204 3.98165 13.8488 4.84719 13.8488 5.89296V7.36757C13.8488 8.41334 14.6204 9.27888 15.6254 9.42592V10.5747C15.6254 11.044 15.2449 11.4244 14.7756 11.4244H7.05384L7.05384 11.1165C7.05384 10.7456 6.75321 10.445 6.38236 10.445C6.01151 10.445 5.71088 10.7456 5.71088 11.1165L5.71088 11.4244H3.05524C2.58595 11.4244 2.20551 11.044 2.20551 10.5747V9.44052C3.27166 9.35074 4.10896 8.45693 4.10896 7.36757V5.89296C4.10896 4.80359 3.27166 3.90979 2.20551 3.82V2.68585ZM0.857666 2.68585C0.857666 1.47217 1.84155 0.488281 3.05524 0.488281H14.7756C15.9893 0.488281 16.9732 1.47217 16.9732 2.68585V4.42791C16.9732 4.83247 16.6452 5.16043 16.2407 5.16043H15.9291C15.5246 5.16043 15.1966 5.4884 15.1966 5.89296V7.36757C15.1966 7.77213 15.5246 8.10009 15.9291 8.10009H16.2407C16.6452 8.10009 16.9732 8.42806 16.9732 8.83262V10.5747C16.9732 11.7884 15.9893 12.7723 14.7756 12.7723H3.05524C1.84155 12.7723 0.857666 11.7884 0.857666 10.5747V8.83262C0.857666 8.42806 1.18563 8.10009 1.59019 8.10009H2.02859C2.43316 8.10009 2.76112 7.77213 2.76112 7.36757V5.89296C2.76112 5.4884 2.43316 5.16043 2.02859 5.16043H1.59019C1.18563 5.16043 0.857666 4.83247 0.857666 4.42791V2.68585ZM7.05384 4.56484C7.05384 4.19399 6.75321 3.89336 6.38236 3.89336C6.01151 3.89336 5.71088 4.19399 5.71088 4.56484V8.69567C5.71088 9.06652 6.01151 9.36715 6.38236 9.36715C6.75321 9.36715 7.05384 9.06652 7.05384 8.69567L7.05384 4.56484Z" fill="currentColor"/>
</svg>
