<svg width="22" height="23" viewBox="0 0 22 23" fill="none" xmlns="http://www.w3.org/2000/svg">
<path fill-rule="evenodd" clip-rule="evenodd" d="M3 4.81244C2.35935 4.81244 1.84 5.33179 1.84 5.97244V7.52076C3.29534 7.64343 4.43827 8.86355 4.43827 10.3506V12.3637C4.43827 13.8507 3.29534 15.0709 1.84 15.1935V16.7418C1.84 17.3825 2.35935 17.9018 3 17.9018H19C19.6406 17.9018 20.16 17.3825 20.16 16.7418V15.1736C18.788 14.973 17.7346 13.7913 17.7346 12.3637V10.3506C17.7346 8.92295 18.788 7.74132 20.16 7.54066V5.97244C20.16 5.33179 19.6406 4.81244 19 4.81244H3ZM3 2.97244C1.34315 2.97244 0 4.31559 0 5.97244V8.35062C0 8.9029 0.447715 9.35062 1 9.35062H1.59827C2.15055 9.35062 2.59827 9.79833 2.59827 10.3506V12.3637C2.59827 12.916 2.15055 13.3637 1.59827 13.3637H1C0.447715 13.3637 0 13.8114 0 14.3637V16.7418C0 18.3987 1.34314 19.7418 3 19.7418H19C20.6568 19.7418 22 18.3987 22 16.7418V14.3637C22 13.8114 21.5523 13.3637 21 13.3637H20.5746C20.0223 13.3637 19.5746 12.916 19.5746 12.3637V10.3506C19.5746 9.79833 20.0223 9.35062 20.5746 9.35062H21C21.5523 9.35062 22 8.9029 22 8.35062V5.97244C22 4.31559 20.6568 2.97244 19 2.97244H3Z" fill="currentColor"/>
<rect x="4.12939" y="1.37268" width="1.84" height="23.9105" rx="0.92" transform="rotate(-30 4.12939 1.37268)" fill="currentColor"/>
</svg>
