<svg width="21" height="21" viewBox="0 0 21 21" fill="none" xmlns="http://www.w3.org/2000/svg">
<path fill-rule="evenodd" clip-rule="evenodd" d="M10.9762 5.33876C10.4681 5.33876 10.0562 4.92686 10.0562 4.41876V2.27537C8.74145 2.42456 7.47417 2.89229 6.36868 3.64859C4.81055 4.71455 3.67023 6.28779 3.14202 8.10026C2.6138 9.91272 2.73038 11.8523 3.47188 13.5884C4.21338 15.3246 5.53393 16.7499 7.20852 17.6216C8.88311 18.4932 10.8081 18.7573 12.6556 18.3687C14.503 17.9802 16.1586 16.9631 17.3402 15.4907C18.5218 14.0183 19.1563 12.1818 19.1357 10.2941C19.1184 8.71803 18.6454 7.18769 17.7834 5.88373C17.4999 5.45479 17.5462 4.87004 17.9401 4.53952C18.3339 4.209 18.9252 4.25817 19.2178 4.681C20.3518 6.31998 20.9756 8.26666 20.9976 10.2737C21.0229 12.5922 20.2436 14.8478 18.7924 16.6561C17.3412 18.4644 15.3078 19.7136 13.0388 20.1909C10.7698 20.6681 8.40551 20.3438 6.34881 19.2732C4.2921 18.2026 2.67022 16.4521 1.75952 14.3198C0.848814 12.1874 0.705636 9.80533 1.35438 7.57928C2.00312 5.35324 3.40365 3.421 5.31732 2.11181C6.97389 0.978498 8.92627 0.372765 10.9193 0.361493C10.9286 0.361441 10.9378 0.361537 10.9469 0.36178C10.9566 0.361478 10.9664 0.361325 10.9762 0.361325C11.4843 0.361325 11.8962 0.773223 11.8962 1.28133V4.41876C11.8962 4.92686 11.4843 5.33876 10.9762 5.33876ZM10.6929 10.2475L12.78 8.96105L11.4936 11.0482C11.374 11.2423 11.1519 11.3486 10.9257 11.3202C10.6619 11.287 10.4541 11.0792 10.4209 10.8154C10.3925 10.5892 10.4988 10.3671 10.6929 10.2475ZM8.59529 11.0449C8.73332 12.143 9.59813 13.0078 10.6962 13.1458C11.6379 13.2642 12.562 12.8216 13.06 12.0136L16.2658 6.81252L16.3729 6.63878L16.6435 6.19977L16.8323 5.89336C17.2281 5.25137 16.4897 4.51305 15.8477 4.90876L15.5413 5.09762L15.1023 5.36821L14.9286 5.4753L9.72748 8.68113C8.91951 9.17914 8.47691 10.1032 8.59529 11.0449Z" fill="currentColor"/>
</svg>
