<svg width="22" height="23" viewBox="0 0 22 23" fill="none" xmlns="http://www.w3.org/2000/svg">
<g clip-path="url(#clip0)">
<path fill-rule="evenodd" clip-rule="evenodd" d="M4.92597 1.91266C4.48595 2.16671 4.33518 2.72937 4.58923 3.1694L7.40932 8.05394C6.43836 8.61161 5.53492 9.32711 4.73497 10.2086C2.60577 12.5547 1.27881 15.9989 1.27881 20.5743C1.27881 21.0389 1.6252 21.4305 2.08631 21.4874C2.54742 21.5442 2.97853 21.2483 3.0913 20.7976C3.78908 18.0087 5.41718 16.4075 7.22958 15.5063C8.51482 14.8672 9.90477 14.5767 11.1288 14.4963L11.7621 15.5931V18.1972C11.7621 18.5693 11.9862 18.9048 12.33 19.0472C12.6738 19.1896 13.0695 19.1109 13.3326 18.8477L13.5282 18.6521L15.6245 22.2831C15.8786 22.7231 16.4412 22.8738 16.8812 22.6198C17.3213 22.3657 17.472 21.8031 17.218 21.3631L14.8752 17.3052L20.9614 11.2189C21.3207 10.8597 21.3207 10.2771 20.9614 9.91786L13.3326 2.28907C13.0695 2.02595 12.6738 1.94724 12.33 2.08964C11.9862 2.23204 11.7621 2.56751 11.7621 2.93961V6.62029C10.8492 6.73243 9.94864 6.94746 9.08145 7.27015L6.18272 2.2494C5.92867 1.80937 5.366 1.6586 4.92597 1.91266ZM8.32942 9.6476C7.51612 10.1144 6.76291 10.7119 6.09751 11.4451C5.0934 12.5515 4.26682 13.992 3.74126 15.8057C4.54089 14.9712 5.45487 14.3338 6.41036 13.8587C7.63671 13.2489 8.92378 12.9089 10.1199 12.7488L8.32942 9.6476ZM12.1797 12.6364L10.017 8.8905C10.8891 8.59762 11.8022 8.42972 12.7294 8.382C13.2184 8.35683 13.6021 7.95294 13.6021 7.46322V5.16069L19.0098 10.5684L13.9227 15.6555L13.6021 15.1001L13.6021 13.5822C13.6021 13.1007 13.2308 12.7007 12.7506 12.6648C12.5678 12.6511 12.3771 12.6415 12.1797 12.6364Z" fill="currentColor"/>
</g>
<defs>
<clipPath id="clip0">
<rect width="22" height="22" fill="white" transform="translate(0 0.756958)"/>
</clipPath>
</defs>
</svg>
