<svg width="23" height="23" viewBox="0 0 23 23" fill="none" xmlns="http://www.w3.org/2000/svg">
<path fill-rule="evenodd" clip-rule="evenodd" d="M4.62807 14.6803C5.48761 13.8208 6.6534 13.3379 7.86898 13.3379H15.2023C16.4179 13.3379 17.5837 13.8208 18.4432 14.6803C19.3028 15.5399 19.7856 16.7056 19.7856 17.9212V19.7546C19.7856 20.2608 19.3752 20.6712 18.869 20.6712C18.3627 20.6712 17.9523 20.2608 17.9523 19.7546V17.9212C17.9523 17.1919 17.6626 16.4924 17.1469 15.9767C16.6311 15.461 15.9317 15.1712 15.2023 15.1712H7.86898C7.13963 15.1712 6.44016 15.461 5.92443 15.9767C5.40871 16.4924 5.11898 17.1919 5.11898 17.9212V19.7546C5.11898 20.2608 4.70857 20.6712 4.20231 20.6712C3.69605 20.6712 3.28564 20.2608 3.28564 19.7546V17.9212C3.28564 16.7056 3.76853 15.5399 4.62807 14.6803Z" fill="currentColor"/>
<path fill-rule="evenodd" clip-rule="evenodd" d="M3.28564 19.7511C3.28564 19.243 3.77813 18.8311 4.38564 18.8311H18.6856C19.2932 18.8311 19.7856 19.243 19.7856 19.7511C19.7856 20.2592 19.2932 20.6711 18.6856 20.6711H4.38564C3.77813 20.6711 3.28564 20.2592 3.28564 19.7511Z" fill="currentColor"/>
<path fill-rule="evenodd" clip-rule="evenodd" d="M11.5355 4.17122C10.0167 4.17122 8.78548 5.40244 8.78548 6.92122C8.78548 8.44001 10.0167 9.67122 11.5355 9.67122C13.0543 9.67122 14.2855 8.44001 14.2855 6.92122C14.2855 5.40244 13.0543 4.17122 11.5355 4.17122ZM6.95215 6.92122C6.95215 4.38992 9.00418 2.33789 11.5355 2.33789C14.0668 2.33789 16.1188 4.38992 16.1188 6.92122C16.1188 9.45253 14.0668 11.5046 11.5355 11.5046C9.00418 11.5046 6.95215 9.45253 6.95215 6.92122Z" fill="currentColor"/>
</svg>
